<svg xmlns="http://www.w3.org/2000/svg" xmlns:xlink="http://www.w3.org/1999/xlink" id="Layer_1" x="0px" y="0px" viewBox="0 0 3089.9 636.8" style="enable-background:new 0 0 3089.9 636.8;" xml:space="preserve"><style type="text/css">	.st0{fill:#FFFFFF;}	.st1{fill:#FFFFFF;stroke:#FFFFFF;stroke-width:3;stroke-linecap:round;stroke-linejoin:round;stroke-miterlimit:10;}</style><g>	<g>		<g>			<path class="st0" d="M1029.1,531.7c-0.3,0-0.5-0.1-0.8-0.2c-1.8-0.1-5.6-0.3-6.9-0.3c-0.1,0-0.1,0-0.2,0c-0.1,0-0.2,0-0.3,0h-3.5    c-0.3,0-0.5-0.1-0.7-0.2l-3.3-1.8c-0.2-0.1-0.4-0.3-0.6-0.6l-2-3.3c-0.1-0.2-0.2-0.5-0.2-0.8l0.3-46.1l-0.4-3.2    c0-0.1,0-0.1,0-0.2v-10.6c0,0,0-0.1,0-0.1l0.3-3.5l-0.3-3.3c0,0,0-0.1,0-0.1v-21c0-0.2,0-0.4,0.1-0.6l1.5-3.6    c0.2-0.4,0.5-0.7,0.9-0.8l5.3-2c0.2-0.1,0.3-0.1,0.5-0.1h8.2c0.1,0,0.1,0,0.2,0l3.4,0.4l3-0.4c0.1,0,0.1,0,0.2,0s0.1,0,0.2,0    l3,0.4c1-0.1,5.3-0.5,6.4-0.5c0.1,0,0.3,0,0.4,0h5c0.1,0,0.1,0,0.2,0l8.5,1.1c0.2,0,0.3,0.1,0.4,0.1l3.3,1.5    c0.1,0,0.1,0.1,0.2,0.1l8.6,5.7c0.1,0.1,0.3,0.2,0.4,0.4l2,2.7c0,0,0.1,0.1,0.1,0.1l1.8,3.2c0,0.1,0.1,0.1,0.1,0.2l2.6,6.6    c0.1,0.2,0.1,0.4,0.1,0.5v10.3c0,0.2,0,0.3-0.1,0.5l-1.2,3.3l-1.4,3.3c0,0.1,0,0.1-0.1,0.2l-1.8,3.2c0,0.1-0.1,0.1-0.1,0.1    l-2.1,2.9c-0.1,0.1-0.2,0.2-0.3,0.3l-2.5,2l-0.6,1.6l1,1.1l3,1.1c0.2,0.1,0.4,0.2,0.5,0.3l5.6,5.4c0.1,0.1,0.2,0.2,0.2,0.3    l1.5,2.4l1.9,3.4c0.1,0.1,0.1,0.2,0.1,0.3l1.1,3.6c0,0.1,0.1,0.3,0.1,0.4v10.7c0,0.2,0,0.4-0.1,0.6l-1.2,2.8l-0.9,3.4    c0,0.2-0.1,0.3-0.2,0.5l-2.1,3.2c0,0-0.1,0.1-0.1,0.1l-4.4,5.3c-0.1,0.1-0.2,0.2-0.3,0.2l-3,2.3c-0.1,0-0.1,0.1-0.2,0.1l-6.3,3.3    c-0.2,0.1-0.3,0.1-0.5,0.2c-3.5,0.5-7.5,1.1-8.2,1.3c-0.2,0.1-0.4,0.1-0.6,0.1h-15.7c0,0-0.1,0-0.1,0l-3.4-0.3    C1034.4,531.4,1029.2,531.7,1029.1,531.7z M1044.9,524.8c0.2-0.1,0.4-0.1,0.6-0.1l8.4-0.4l8.2-1.3l6-3.9l2.6-2.2l3.1-5.4l1.2-3.3    v-4.9l-0.3-5.4l-0.7-2.8l-1.8-2.6l-4.4-5l-2.6-1.1c-0.1,0-0.1-0.1-0.2-0.1l-3-1.8c-4.8-0.4-11.9-1-13.1-1c-0.1,0-0.1,0-0.2,0    h-3.5c-0.1,0-0.2,0-0.3,0l-3-0.7l-3.1,0.7c-0.1,0-0.2,0-0.3,0c0,0,0,0-0.1,0c0,0-1.4-0.1-2.3-0.1c-0.2,0-0.3,0-0.4,0    c-0.1,0-0.3,0.1-0.4,0.1h-3.9c-0.1,0-5.3-0.3-6.7-0.3c0,0-0.1,0-0.1,0c-0.1,0-0.2,0-0.3,0h-3l-2.4,1.5l-1.7,3.9l0.4,11.9    c0,0.1,0,0.1,0,0.2l-0.3,3.6v16.5l1,1.9l4.5,1.5L1044.9,524.8z M1026.4,476.8c0,0,0.1,0,0.1,0l3.3,0.3c0.2,0,0.3,0.1,0.4,0.1    l4.6-0.4c0,0,0.1,0,0.1,0h15.7l4.5-0.7l5.8-1.8l2.7-2.5l2.1-2.3l3.1-4.8l0.8-3.6l0.4-4.7l-0.7-4.9l-0.8-2.8l-3.7-5.3l-2.5-2.5    l-2.5-1.8l-3-1.4l-8.5-1.5l-9-0.3l-8.8,0.9c-0.1,0-0.1,0-0.2,0c-0.1,0-0.2,0-0.2,0c-2-0.3-3.2-0.5-4-0.7h-5l-2.7,1.7l-1.5,2.5    l0.3,9.2l0,5.3c0,0,0,0.1,0,0.1l-0.3,3.5l0.3,7c0,0.1,0,0.1,0,0.2l-0.4,7l1.8,2.6c1,0.6,2.2,1.2,2.7,1.4H1026.4z"></path>			<path class="st0" d="M1043.4,430.8c0.1,0,0.2,0,0.2,0h5.1l8.5,1.1l3.3,1.5l8.6,5.7l2,2.7l1.8,3.2l2.6,6.6v10.3l-1.2,3.3l-1.4,3.2    l-1.8,3.2l-2.1,2.9l-2.9,2.3l-1.1,2.9l1.8,2.1l3.3,1.2l5.6,5.4l1.5,2.4l1.8,3.3l1.1,3.6v10.7l-1.2,2.9l-0.9,3.5l-2.1,3.2    l-4.4,5.3l-3,2.3l-6.3,3.3c0,0-8.6,1.2-8.6,1.4h-15.7l-3.5-0.3l-5.3,0.3l0.3-0.2c0,0-6.2-0.3-8-0.3c-0.3,0-0.5,0-0.5,0h-3.5    l-3.3-1.8l-2-3.3l0.3-46.2l-0.5-3.3v-10.6l0.3-3.6l-0.3-3.5v-7.3v-3.5v-3.2v-3.6v-3.5l1.5-3.6l5.3-2h8.2l3.6,0.5l3.2-0.5l3.2,0.5    C1037,431.3,1042.2,430.8,1043.4,430.8 M1030.5,435.4c0,0-3.9-0.6-3.9-0.8h-5.7l-3.3,2.1l-2,3.2l0.3,9.7v5.3l-0.3,3.6l0.3,7.1    l-0.5,7.6l2.3,3.3c0,0,3.2,1.8,3.5,1.8c0,0,0,0,0,0h5.3l3.3,0.3l0,0.2h0.3l5-0.5h15.9l4.7-0.8l6.2-2l3-2.7l2.3-2.4l3.3-5.1    l0.9-3.9l0.5-5l-0.8-5.1l-0.9-3.2l-3.9-5.6l-2.7-2.7l-2.7-2l-3.3-1.5l-8.8-1.5l-9.2-0.3L1030.5,435.4 M1038.6,482.2    c0,0-1.4-0.1-2.3-0.1c-0.5,0-0.8,0-0.8,0.1h-3.9c0,0-5.2-0.3-6.7-0.3c-0.2,0-0.4,0-0.4,0h-3.5l-3.2,2l-2,4.7l0.5,12.2l-0.3,3.6    v6.2v3.6v7.1l1.5,2.7l5.3,1.8l22.5,0.5l0.3-0.2l8.5-0.5l8.6-1.4l6.3-4.1l2.9-2.4l3.3-5.7l1.4-3.6v-5.1l-0.3-5.6l-0.8-3.2l-2-2.9    l-4.7-5.3l-2.9-1.2l-3.3-2c0,0-12.2-1.1-13.6-1.1c-0.1,0-0.1,0-0.1,0h-3.5l-3.3-0.8L1038.6,482.2 M1043.4,427.8L1043.4,427.8    c-1.1,0-5,0.3-6.3,0.5l-2.8-0.4c-0.1,0-0.3,0-0.4,0s-0.3,0-0.4,0l-2.8,0.4l-3.2-0.4c-0.1,0-0.2,0-0.4,0h-8.2    c-0.4,0-0.7,0.1-1,0.2l-5.3,2c-0.8,0.3-1.4,0.9-1.7,1.7l-1.5,3.6c-0.2,0.4-0.2,0.8-0.2,1.2v3.5v3.6v3.2v3.5v7.3    c0,0.1,0,0.2,0,0.3l0.3,3.2l-0.3,3.4c0,0.1,0,0.2,0,0.2v10.6c0,0.1,0,0.3,0,0.4l0.4,3.1l-0.3,46c0,0.5,0.1,1.1,0.4,1.5l2,3.3    c0.3,0.5,0.7,0.8,1.1,1.1l3.3,1.8c0.4,0.2,0.9,0.4,1.4,0.4h3.5c0.1,0,0.3,0,0.4,0c0,0,0,0,0,0c1.1,0,4.4,0.2,6.6,0.3    c0.4,0.1,0.7,0.2,1.1,0.2c0.1,0,0.1,0,0.2,0l5.1-0.3l3.3,0.3c0.1,0,0.2,0,0.3,0h15.7c0.3,0,0.7-0.1,1-0.2c0.9-0.2,4.7-0.8,8-1.2    c0.3,0,0.7-0.2,1-0.3l6.3-3.3c0.1-0.1,0.3-0.2,0.4-0.3l3-2.3c0.2-0.1,0.4-0.3,0.5-0.5l4.4-5.3c0.1-0.1,0.1-0.2,0.2-0.2l2.1-3.2    c0.2-0.3,0.3-0.6,0.4-0.9l0.9-3.3l1.1-2.7c0.2-0.4,0.2-0.8,0.2-1.2v-10.7c0-0.3,0-0.6-0.1-0.8l-1.1-3.6c-0.1-0.2-0.1-0.4-0.2-0.6    l-1.8-3.3c0-0.1-0.1-0.1-0.1-0.2l-1.5-2.4c-0.1-0.2-0.3-0.4-0.5-0.6l-5.6-5.4c-0.3-0.3-0.7-0.5-1.1-0.7l-2.6-0.9l-0.2-0.2    l0.2-0.4l2.2-1.7c0.2-0.2,0.4-0.4,0.6-0.6l2.1-2.9c0.1-0.1,0.1-0.2,0.2-0.3l1.8-3.2c0.1-0.1,0.1-0.2,0.2-0.3l1.4-3.2    c0-0.1,0-0.1,0.1-0.2l1.2-3.3c0.1-0.3,0.2-0.7,0.2-1v-10.3c0-0.4-0.1-0.7-0.2-1.1l-2.6-6.6c-0.1-0.1-0.1-0.3-0.2-0.4l-1.8-3.2    c-0.1-0.1-0.1-0.2-0.2-0.3l-2-2.7c-0.2-0.3-0.5-0.5-0.8-0.7l-8.6-5.7c-0.1-0.1-0.3-0.2-0.4-0.2l-3.3-1.5    c-0.3-0.1-0.6-0.2-0.9-0.2l-8.5-1.1c-0.1,0-0.2,0-0.4,0h-4.9C1043.7,427.8,1043.5,427.8,1043.4,427.8L1043.4,427.8L1043.4,427.8z     M1030.5,438.4c0.1,0,0.2,0,0.3,0l8.7-0.9l8.8,0.3l8.2,1.4l2.7,1.2l2.3,1.6l2.4,2.4l3.5,5l0.7,2.5l0.7,4.6l-0.4,4.4l-0.7,3.2    l-2.9,4.5l-2,2.1l-2.4,2.2l-5.4,1.7l-4.2,0.7H1035c-0.1,0-0.2,0-0.3,0l-4.3,0.4c-0.2,0-0.3-0.1-0.5-0.1l-3.3-0.3    c-0.1,0-0.2,0-0.3,0h-4.7c-0.5-0.2-1.3-0.7-2-1.1l-1.3-1.9l0.4-6.5c0-0.1,0-0.2,0-0.3l-0.3-6.9l0.3-3.4c0-0.1,0-0.2,0-0.2v-5.3    c0,0,0-0.1,0-0.1l-0.3-8.8l1.1-1.8l2-1.3h4.5c0.6,0.2,1.2,0.3,1.9,0.4c1,0.2,2,0.3,2,0.3C1030.2,438.3,1030.3,438.4,1030.5,438.4    L1030.5,438.4z M1038.6,485.2c0.2,0,0.4,0,0.6-0.1l2.8-0.6l2.7,0.6c0.2,0,0.4,0.1,0.7,0.1h3.5c0.1,0,0.2,0,0.3,0    c1.2,0,7,0.5,12.6,1l2.7,1.6c0.1,0.1,0.2,0.1,0.4,0.2l2.2,0.9l4.1,4.6l1.5,2.3l0.6,2.4l0.3,5.2v4.5l-1.1,2.9l-2.9,5.1l-2.3,2    l-5.7,3.6l-7.8,1.2l-8.3,0.4c-0.3,0-0.5,0.1-0.7,0.1l-21.4-0.4l-3.8-1.3l-0.6-1v-6.3v-3.6v-6.1l0.3-3.5c0-0.1,0-0.2,0-0.4    l-0.4-11.6l1.3-3.2l1.6-1h2.6c0.1,0,0.3,0,0.4,0c1.2,0,5.1,0.2,6.5,0.3c0.1,0,0.1,0,0.2,0h3.9c0.2,0,0.4,0,0.6-0.1    c0.1,0,0.1,0,0.2,0c0.9,0,2.2,0.1,2.2,0.1C1038.5,485.2,1038.6,485.2,1038.6,485.2L1038.6,485.2z"></path>		</g>		<g>			<path class="st0" d="M1223.5,531.6c-0.5,0-1-0.3-1.3-0.7l-3.6-6c0,0,0-0.1-0.1-0.1l-2.9-5.8l-2.7-2.7l-3.6-1.2    c0,0-20.2,0.4-20.2,0.4c0,0-0.1,0-0.1,0l-3.1-0.3l-32.1-0.3l-3.6,1.7l-2.6,2.5l-3.8,8.2c0,0.1-0.1,0.2-0.1,0.2l-2.4,3.3    c-0.3,0.4-0.7,0.6-1.2,0.6c-0.1,0-0.2,0-0.3,0l-2-0.5c-0.4-0.1-0.7-0.3-0.9-0.7c-0.2-0.3-0.3-0.8-0.2-1.1l1.5-6.3    c0-0.1,0-0.1,0.1-0.2l1.2-3c0-0.1,0.1-0.2,0.1-0.2l2.1-3.2l8.7-19.3l0.9-2.9c0-0.1,0.1-0.3,0.2-0.4l2.2-3.2l2.9-6.2l1-3.1    c0-0.1,0.1-0.1,0.1-0.2l5.1-9.8l5.3-12.8c0-0.1,0.1-0.1,0.1-0.2l1.9-3.1l4-9.7c0,0,0-0.1,0.1-0.1l5.1-9.7    c0.3-0.5,0.8-0.8,1.3-0.8h2.7c0.5,0,1,0.3,1.3,0.7l2.3,3.5c0,0.1,0.1,0.1,0.1,0.2l10.4,22.5c0,0.1,0.1,0.2,0.1,0.3l0.7,3.1l3.9,6    c0.1,0.1,0.1,0.3,0.2,0.4l1,3.3l1.7,2.9c0.1,0.1,0.1,0.2,0.1,0.3l1,3.2l1.5,2.9c0,0,0,0.1,0,0.1l1.3,3.2l1.9,3.2    c0,0.1,0.1,0.2,0.1,0.2l2.4,6.4l1.7,2.9c0.1,0.1,0.1,0.2,0.1,0.3l1,3.4l2.9,6.3l1.9,2.9c0,0.1,0.1,0.1,0.1,0.2l5.7,13.1    c0.1,0.1,0.1,0.2,0.1,0.4l0.5,2.9c0.1,0.8-0.4,1.5-1.2,1.7l-2.3,0.5c-0.1,0-0.2,0-0.3,0H1223.5z M1206.3,508.5l3.3-1.5l0.2-1.6    l-4.2-9.8l-2-2.9c-0.1-0.2-0.2-0.3-0.2-0.5l-0.7-2.9l-2.1-2.9c-0.1-0.1-0.1-0.2-0.1-0.3l-1.5-3.3c0-0.1-0.1-0.1-0.1-0.2l-1-3.5    l-4.6-9.5l-1.9-2.9c-0.1-0.1-0.1-0.2-0.2-0.3l-2.2-6.6l-2-3.2c-0.1-0.1-0.1-0.2-0.1-0.3l-2.4-6l-1.8-2.7l-1-1l-1.1,0.9l-1.1,2.7    c0,0,0,0.1-0.1,0.1l-1.5,2.9l-1,3.2c0,0.1-0.1,0.2-0.1,0.2l-6.6,13l-0.9,3.3c0,0.1-0.1,0.2-0.1,0.3l-3.4,6.4l-0.9,2.9    c0,0.1,0,0.1-0.1,0.2l-3.2,6.6c0,0.1-0.1,0.1-0.1,0.2l-2,2.9l-5.1,13v1.9l3.5,1c0.1,0,0.2,0.1,0.2,0.1H1206.3z"></path>			<path class="st0" d="M1183.2,436.1l2.3,3.5l10.4,22.5l0.8,3.3l4.1,6.2l1.1,3.5l1.8,3l1.1,3.3l1.5,3l1.4,3.3l2,3.3l2.4,6.5l1.8,3    l1.1,3.5l3,6.5l2,3l5.7,13.1l0.5,2.9l-2.3,0.5l0,0h-0.2l-3.6-6l-3-6l-3.2-3.2l-4.2-1.4l-20.4,0.5l-3.2-0.3l-32.5-0.3l-4.1,2    l-3,2.9l-3.9,8.5l-2.4,3.3l-2-0.5l1.5-6.3l1.2-3l2.1-3.3l8.8-19.5l0.9-3l2.3-3.3l3-6.3l1.1-3.2l5.1-9.8l5.3-12.8l2-3.2l4.1-9.8    l5.1-9.7H1183.2 M1157.4,510h49.2l4.4-2l0.3-2.9l-4.4-10.3l-2.1-3l-0.8-3.2l-2.3-3.2l-1.5-3.3l-1.1-3.6l-4.7-9.7l-2-3l-2.3-6.8    l-2.1-3.3l-2.4-6.2l-2-3l-2.1-2l-2.4,2l-1.2,3l-1.5,3l-1.1,3.3l-6.6,13.1l-0.9,3.5l-3.5,6.5l-0.9,3l-3.2,6.6l-2.1,3l-5.3,13.4    v3.3l4.5,1.4l0,0.2H1157.4 M1183.2,433.1h-2.7c-1.1,0-2.1,0.6-2.6,1.6l-5.1,9.7c0,0.1-0.1,0.2-0.1,0.3l-4,9.6l-1.8,3    c-0.1,0.1-0.2,0.3-0.2,0.4l-5.2,12.7l-5.1,9.7c-0.1,0.1-0.1,0.3-0.2,0.4l-1,3l-2.8,6l-2.1,3.1c-0.2,0.3-0.3,0.5-0.4,0.8l-0.8,2.8    l-8.6,19.1l-2,3.1c-0.1,0.2-0.2,0.3-0.3,0.5l-1.2,3c-0.1,0.1-0.1,0.3-0.1,0.4l-1.5,6.3c-0.2,0.8-0.1,1.6,0.4,2.3    c0.4,0.7,1.1,1.2,1.9,1.3l2,0.5c0.2,0.1,0.5,0.1,0.7,0.1c0.9,0,1.9-0.4,2.4-1.2l2.4-3.3c0.1-0.2,0.2-0.3,0.3-0.5l3.7-7.9l2.3-2.2    l3-1.5l31.6,0.3l3,0.3c0.1,0,0.2,0,0.3,0c0,0,0,0,0.1,0l19.9-0.4l3.1,1l2.3,2.3l2.8,5.6c0,0.1,0.1,0.1,0.1,0.2l3.6,6    c0.5,0.9,1.5,1.5,2.6,1.5h0.2c0.2,0,0.4,0,0.6-0.1l2.3-0.5c1.6-0.3,2.6-1.8,2.4-3.4l-0.5-2.9c0-0.3-0.1-0.5-0.2-0.7l-5.7-13.1    c-0.1-0.2-0.1-0.3-0.2-0.4l-1.8-2.8l-2.8-6.1l-1-3.3c-0.1-0.2-0.2-0.5-0.3-0.7l-1.7-2.8l-2.3-6.2c-0.1-0.2-0.1-0.3-0.2-0.5    l-1.9-3.1l-1.3-3.1c0-0.1-0.1-0.1-0.1-0.2l-1.4-2.8l-1-3.1c-0.1-0.2-0.2-0.4-0.3-0.6l-1.6-2.7l-0.9-3.1c-0.1-0.3-0.2-0.5-0.4-0.8    l-3.8-5.7l-0.6-2.8c0-0.2-0.1-0.4-0.2-0.6l-10.4-22.5c-0.1-0.1-0.1-0.3-0.2-0.4l-2.3-3.5C1185.2,433.6,1184.2,433.1,1183.2,433.1    L1183.2,433.1z M1179.3,453.7l1.4-2.8c0-0.1,0.1-0.2,0.1-0.2l0.8-2l1.4,2.2l2.3,5.9c0.1,0.2,0.2,0.4,0.3,0.5l1.9,3l2.1,6.4    c0.1,0.2,0.2,0.5,0.3,0.7l1.9,2.9l4.5,9.3l1,3.4c0,0.1,0.1,0.3,0.1,0.4l1.5,3.3c0.1,0.2,0.2,0.3,0.3,0.5l1.9,2.7l0.6,2.6    c0.1,0.4,0.2,0.7,0.5,1l1.9,2.8l4,9.3l0,0.4l-2.2,1h-47.5c0,0-0.1,0-0.1,0l-2.4-0.7v-0.5l4.9-12.6l1.9-2.7    c0.1-0.1,0.2-0.3,0.2-0.4l3.2-6.6c0.1-0.1,0.1-0.3,0.2-0.4l0.8-2.7l3.3-6.2c0.1-0.2,0.2-0.4,0.3-0.7l0.8-3.2l6.5-12.9    c0.1-0.1,0.1-0.3,0.2-0.4L1179.3,453.7L1179.3,453.7z"></path>		</g>		<g>			<path class="st0" d="M1358.7,531.9c-0.2,0-0.5-0.1-0.7-0.2l-0.6-0.3c-0.4-0.2-0.6-0.5-0.7-0.9l-2.3-2.1c-0.1-0.1-0.3-0.3-0.3-0.5    l-1.3-2.8l-12.2-20.9l-1.9-2.7c0,0-0.1-0.1-0.1-0.1l-1.9-3.1l-2.7-2.6l-4.1-0.8h-8.6l-5-0.3l-3.1,0.3c0,0-0.2,0-0.2,0l-12.7-0.3    l-2.3,1.5l-1.7,2.7l0.8,6.7c0,0.2,0,0.4,0,0.5l-0.7,2.9l0.3,3.1c0,0,0,0.1,0,0.1v3.5c0,0.1,0,0.1,0,0.2l-0.4,3.2l0.3,3    c0,0,0,0.1,0,0.1v3.6c0,0.1,0,0.3-0.1,0.4l-1.1,3.6c-0.2,0.6-0.8,1.1-1.4,1.1c-0.1,0-0.1,0-0.2,0l-2.1-0.3    c-0.7-0.1-1.2-0.6-1.3-1.3l-1.1-6.8c0-0.1,0-0.3,0-0.4l0.4-3.2l-0.3-36.3c0-0.1,0-0.1,0-0.2l0.4-3.3l-0.4-2.8c0-0.1,0-0.1,0-0.2    v-14.5c0,0,0-0.1,0-0.1l0.3-3.8l-0.3-3.4c0-0.1,0-0.2,0-0.3l0.4-3.2l-0.3-7c0-0.1,0-0.2,0-0.3l0.4-3.1l-0.4-4    c0-0.4,0.1-0.7,0.3-1l2.3-3.3c0.1-0.2,0.4-0.4,0.6-0.5l3.2-1.5c0.2-0.1,0.4-0.1,0.6-0.1c0,0,17.1-0.5,17.1-0.5    c0,0,7.5,0.4,7.5,0.4l3.4-0.3c0,0,0.1,0,0.1,0c0,0,0.1,0,0.1,0l10.9,0.8c0.1,0,0.2,0,0.2,0l6.5,1.5c0.1,0,0.1,0,0.2,0.1l3.5,1.4    c0.1,0,0.2,0.1,0.3,0.2l5.6,4.1c0,0,0.1,0.1,0.1,0.1l2.4,2.3c0.1,0.1,0.1,0.2,0.2,0.2l6.2,8.9c0.1,0.1,0.1,0.2,0.2,0.3l1.4,3.6    c0.1,0.1,0.1,0.3,0.1,0.4l0.5,8.6l0,5.2c0,0.1,0,0.1,0,0.2l-0.5,3.3c0,0.2-0.1,0.3-0.2,0.5l-1.5,2.8l-1.2,3.4    c-0.1,0.1-0.1,0.3-0.2,0.4l-4.1,5.4c0,0-0.1,0.1-0.1,0.1l-2.1,2.3c-0.1,0.1-0.1,0.1-0.2,0.2l-2.7,2.1l-3,2.3    c-0.1,0.1-0.2,0.1-0.3,0.2l-2.7,1.3l-2,1.8l0.3,2.8l13,20.4c0,0.1,0.1,0.1,0.1,0.2l1.3,2.9l3.6,6.1c0.1,0.1,0.1,0.2,0.1,0.3    c1,3.2,1,3.3,1,3.6c0,0.8-0.7,1.5-1.5,1.5h-0.8C1359.4,531.8,1359,531.9,1358.7,531.9z M1301.5,487.9l33.1-0.3l6.7-2l2.7-1.8    l2.9-1.8l2.2-2.2l4.5-5.8l1.2-3l0.8-3.8v-10.4l-0.7-3l-1.4-3l-6.4-8.1l-6-3.5l-3-1.4l-3.2-0.8l-23-0.7c-0.7,0-6.3,0.3-8,0.3    c-0.2,0-0.3,0-0.5,0h-3.6l-2.4,1.4l-1.8,2.6l0.4,9.9c0,0.1,0,0.3,0,0.4l-0.7,3v3.3l0.7,3.2c0,0.1,0,0.2,0,0.3v9.8l0.3,3.9    c0,0.1,0,0.1,0,0.2l-0.4,10l1,2.4L1301.5,487.9z"></path>			<path class="st0" d="M1313.7,431.1l7.6,0.5l3.5-0.3l10.9,0.8l6.5,1.5l3.5,1.4l5.6,4.1l2.4,2.3l6.2,8.9l1.4,3.6l0.5,8.6v5.1    l-0.5,3.3l-1.5,2.9l-1.2,3.5l-4.1,5.4l-2.1,2.3l-2.7,2.1l-3,2.3l-2.9,1.4l-2.7,2.4l0.5,3.9l13.1,20.7l1.4,3l3.6,6.2    c0,0,0.9,3,0.9,3.2h-2l-3-2.7l-1.4-2.9l-12.2-21l-2-2.7l-2-3.3l-3.2-3l-4.7-0.9h-8.8l-5-0.3l-3.2,0.3l-13.1-0.3l-3,2l-2.1,3.5    l0.9,7.3l-0.8,3.2l0.3,3.3v3.5l-0.5,3.3l0.3,3.2v3.6l-1.1,3.6l-2.1-0.3l-1.1-6.8l0.5-3.3l-0.3-36.4l0.5-3.5l-0.5-3v-10.9v-3.6    l0.3-3.9l-0.3-3.5l0.5-3.3l-0.3-7.1l0.5-3.3l-0.5-4.2l2.3-3.3l3.2-1.5L1313.7,431.1 M1304,435.1c-0.3,0-0.5,0-0.5,0h-4.1l-3,1.8    l-2.3,3.3l0.5,10.4l-0.8,3.2v3.6l0.8,3.3v3v6.8l0.3,3.9l-0.5,10.3l1.4,3.5l5.4,1.2v0l33.5-0.3l7.1-2.1l2.9-2l3-1.8l2.4-2.4l4.7-6    l1.4-3.3l0.9-4.1v-10.7l-0.8-3.3l-1.5-3.3l-6.6-8.5l-6.3-3.6l-3.2-1.5l-3.5-0.9l-23.3-0.8C1312,434.8,1305.8,435.1,1304,435.1     M1358.4,530.1l0.3,0.3l-0.6-0.3l0,0H1358.4 M1313.7,428.1C1313.7,428.1,1313.6,428.1,1313.7,428.1l-17.1,0.5    c-0.4,0-0.8,0.1-1.2,0.3l-3.2,1.5c-0.5,0.2-0.9,0.6-1.2,1l-2.3,3.3c-0.4,0.6-0.6,1.3-0.5,2l0.4,3.9l-0.4,3c0,0.2,0,0.4,0,0.5    l0.3,6.8l-0.4,3.1c0,0.2,0,0.4,0,0.7l0.3,3.2l-0.3,3.7c0,0.1,0,0.2,0,0.2v3.6v10.9c0,0.1,0,0.3,0,0.4l0.4,2.6l-0.4,3.1    c0,0.1,0,0.3,0,0.4l0.3,36.2l-0.4,3.1c0,0.3,0,0.6,0,0.9l1.1,6.8c0.2,1.3,1.2,2.3,2.5,2.5l2.1,0.3c0.1,0,0.3,0,0.4,0    c1.3,0,2.5-0.9,2.9-2.2l1.1-3.6c0.1-0.3,0.1-0.6,0.1-0.8v-3.6c0-0.1,0-0.2,0-0.3l-0.3-2.8l0.4-3c0-0.1,0-0.3,0-0.4v-3.5    c0-0.1,0-0.2,0-0.3l-0.3-2.8l0.6-2.7c0.1-0.3,0.1-0.7,0.1-1.1l-0.8-6.2l1.2-2l1.7-1.1l12.2,0.3c0,0,0,0,0.1,0c0.1,0,0.2,0,0.3,0    l2.9-0.3l4.8,0.3c0.1,0,0.1,0,0.2,0h8.5l3.5,0.7l2.2,2.1l1.8,3c0,0.1,0.1,0.2,0.2,0.2l1.9,2.6l12.1,20.8l1.3,2.8    c0.2,0.4,0.4,0.7,0.7,0.9l2.1,1.9c0.3,0.5,0.7,1,1.3,1.3l0.6,0.3c0.4,0.2,0.9,0.3,1.3,0.3c0.5,0,0.9-0.1,1.3-0.3h0.3    c1.7,0,3-1.3,3-3c0-0.5,0-0.6-1-4c-0.1-0.2-0.2-0.4-0.3-0.7l-3.5-6.1l-1.3-2.9c-0.1-0.1-0.1-0.3-0.2-0.4l-12.8-20.1l-0.2-1.7    l1.2-1.1l2.5-1.2c0.2-0.1,0.4-0.2,0.5-0.3l3-2.3c0,0,0,0,0,0l2.7-2.1c0.1-0.1,0.2-0.2,0.4-0.3l2.1-2.3c0.1-0.1,0.1-0.2,0.2-0.2    l4.1-5.4c0.2-0.2,0.3-0.5,0.4-0.8l1.1-3.3l1.4-2.7c0.2-0.3,0.3-0.6,0.3-1l0.5-3.3c0-0.1,0-0.3,0-0.4v-5.1c0-0.1,0-0.1,0-0.2    l-0.5-8.6c0-0.3-0.1-0.6-0.2-0.9l-1.4-3.6c-0.1-0.2-0.2-0.5-0.3-0.7l-6.2-8.9c-0.1-0.2-0.3-0.3-0.4-0.5l-2.4-2.3    c-0.1-0.1-0.2-0.2-0.3-0.2l-5.6-4.1c-0.2-0.2-0.4-0.3-0.7-0.4l-3.5-1.4c-0.1-0.1-0.3-0.1-0.4-0.1l-6.5-1.5    c-0.2,0-0.3-0.1-0.5-0.1l-10.9-0.8c-0.1,0-0.1,0-0.2,0c-0.1,0-0.2,0-0.3,0l-3.3,0.3l-7.3-0.4    C1313.8,428.1,1313.8,428.1,1313.7,428.1L1313.7,428.1z M1304,438.1c1.7,0,7.1-0.3,8-0.3l22.8,0.7l2.9,0.7l2.8,1.3l5.7,3.3    l6.1,7.7l1.2,2.7l0.6,2.7V467l-0.8,3.5l-1.1,2.7l-4.3,5.6l-2,2l-2.7,1.6c-0.1,0-0.1,0.1-0.2,0.1l-2.5,1.7l-6.2,1.9l-32.8,0.3    l-3.5-0.8l-0.5-1.4l0.4-9.6c0-0.1,0-0.2,0-0.4l-0.3-3.8v-6.7v-3c0-0.2,0-0.4-0.1-0.7l-0.7-3v-2.9l0.7-2.8    c0.1-0.3,0.1-0.5,0.1-0.8l-0.4-9.4l1.3-2l1.7-1h3.1C1303.6,438.1,1303.8,438.1,1304,438.1L1304,438.1z"></path>		</g>		<g>			<path class="st0" d="M1463.2,532c-0.1,0-0.2,0-0.3,0c-1.7-0.3-2.8-0.5-3.5-0.7h-3.3l-10.7,0.8c0,0-0.2,0-0.2,0l-9.8-0.5l-0.2,0    c-0.5,0-1-0.3-1.2-0.7l-3.4-1.2c-0.4-0.2-0.7-0.5-0.9-0.9l-1.2-3.5c-0.1-0.2-0.1-0.3-0.1-0.5v-3.3l-0.7-3.5c0-0.1,0-0.2,0-0.4    l0.5-14l0-20.9l-0.4-3.8c0-0.1,0-0.3,0-0.4l1-6.6l-0.3-3.8c0,0,0-0.1,0-0.1v-7l-0.3-3.1c0-0.1,0-0.1,0-0.2l0.4-10.8l-0.3-3.2    c0-0.1,0-0.2,0-0.3l0.4-3.3l-0.3-3.5c0-0.3,0-0.6,0.2-0.8l1.8-3.5c0.1-0.2,0.3-0.4,0.6-0.6l3-1.8c0.2-0.1,0.5-0.2,0.8-0.2    c0,0,40.7,0.9,40.7,0.9c0.2,0,0.4,0.1,0.6,0.2l6.3,3.2c0.1,0,0.2,0.1,0.3,0.2l2.4,2c0.1,0,0.1,0.1,0.1,0.1l4.7,5    c0.1,0.1,0.1,0.1,0.1,0.2l2,2.9c0,0.1,0.1,0.1,0.1,0.2l1.5,3.2c0.1,0.2,0.1,0.3,0.1,0.5l0.9,8.8c0,0.1,0,0.2,0,0.2l-0.3,5.3    c0,0.1,0,0.3-0.1,0.4l-2.4,6.6c0,0.1-0.1,0.2-0.2,0.3l-3.9,5.6c0,0.1-0.1,0.1-0.1,0.2l-2.1,2.3l-0.6,1.1l1.4,1.4l2.9,1.9    c0,0,0.1,0.1,0.1,0.1l2.7,2.3c0.1,0.1,0.2,0.2,0.2,0.2l4.4,5.7c0.1,0.1,0.1,0.2,0.2,0.3l1.4,3c0,0,0,0.1,0,0.1l1.2,3.5    c0,0.1,0.1,0.3,0.1,0.4l0.3,5.1c0,0.1,0,0.1,0,0.2l-0.3,5.4c0,0.1,0,0.3-0.1,0.4l-2.1,6.5c0,0.1-0.1,0.2-0.1,0.3l-2,3.3    c0,0.1-0.1,0.1-0.2,0.2l-4.5,5.3c-0.1,0.1-0.3,0.3-0.4,0.3l-9.2,5c-0.1,0-0.2,0.1-0.2,0.1l-3.2,1.1c-0.1,0-0.2,0.1-0.4,0.1    L1463.2,532C1463.3,532,1463.3,532,1463.2,532z M1442.1,524.6c0.1,0,0.1,0,0.2,0l3.8,0.4c0.6,0,2.3-0.2,3.1-0.2    c0.2,0,0.4,0,0.5,0h3.3c0,0,1.5-0.1,2.5-0.1c0.2,0,0.6,0,1,0.1h3.1l3.6-0.3c0,0,0.1,0,0.1,0c0,0,0.1,0,0.1,0l2.9,0.3l10.6-0.9    l3-0.7l5.7-3.7l2.5-2.7l2-2.7l1.2-2.7l1.7-8.4l-0.3-4.9l-0.9-3.1l-6.2-7.1l-5.9-2.9l-3.1-1.1l-4.4-0.4h-32.9l-2.6,1.6l-1.7,4v3    l0.4,5.1c0,0.1,0,0.2,0,0.3l-0.4,3.2v20.2l1.5,2.4l2.4,1.5l2.8-0.4C1442,524.6,1442,524.6,1442.1,524.6z M1439.5,477.8l34.1-0.7    l5.8-2.8l2.4-1.8l3.8-5l1.2-2.6l0.7-2.8l0.7-5.1l-0.7-5l-0.8-3.1l-1.3-2.5l-4.8-4.8l-2.6-2.1l-6.7-2.3c-1.3-0.1-7.9-0.3-9.8-0.3    c-0.1,0-0.2,0-0.3,0c-0.1,0-0.2,0-0.3,0h-3.5l-5-0.3l-12.6,0.4l-3.1,1l-1.4,2.8l-0.3,3.1v18.1l0.4,4c0,0.1,0,0.2,0,0.3l-0.3,3.4    v2.8c0.1,0.2,0.2,0.4,0.2,0.7v0.1l1.2,2.6L1439.5,477.8z"></path>			<path class="st0" d="M1434.8,431.1l40.6,0.9l6.3,3.2l2.4,2l4.7,5l2,2.9l1.5,3.2l0.9,8.8l-0.3,5.3l-2.4,6.6l-3.9,5.6l-2.3,2.4    l-1.2,2.3l2.3,2.3l3,2l2.7,2.3l4.4,5.7l1.4,3l1.2,3.5l0.3,5.1l-0.3,5.4l-2.1,6.5l-2,3.3l-4.5,5.3l-9.2,5l-3.2,1.1l-13.9,0.9    c0,0-3.5-0.6-3.5-0.8h-3.6l-10.7,0.8l-9.8-0.5h-0.3v-0.3l-4.1-1.5l-1.2-3.5v-3.5l-0.8-3.6l0.5-14v-3.2v-17.8l-0.5-3.9l1.1-6.8    l-0.3-3.9v-7.1l-0.3-3.2l0.5-10.9l-0.3-3.3l0.5-3.5l-0.3-3.6l1.8-3.5L1434.8,431.1 M1439.1,479.3l34.9-0.8l6.2-3l2.7-2l4.1-5.3    l1.4-2.9l0.8-3l0.8-5.4l-0.8-5.3l-0.9-3.3l-1.5-2.9l-5-5l-2.9-2.3l-7.1-2.4c0,0-7.9-0.3-10.1-0.3c-0.4,0-0.6,0-0.6,0h-3.5l-5-0.3    l-12.8,0.5l-3.9,1.2l-1.8,3.6l-0.3,3.5v18.3l0.5,4.1l-0.3,3.5v3.5l0.2,0v0.5l1.5,3.3L1439.1,479.3 M1438.8,526.6l3.3-0.5l3.9,0.5    c0,0,2.2-0.2,3.1-0.2c0.2,0,0.4,0,0.4,0h3.5c0,0,1.5-0.1,2.5-0.1c0.5,0,0.9,0,0.9,0.1h3.3l3.6-0.3l3,0.3l10.9-0.9l3.3-0.8l6-3.9    l2.7-2.9l2.1-2.9l1.4-3l1.8-8.8l-0.3-5.3l-1.1-3.6l-6.6-7.6l-6.2-3l-3.3-1.2l-4.7-0.5h-33.4l-3.3,2.1l-2,4.7v3.3l0.5,5.1    l-0.5,3.3v20.4l0,0.2h-0.2l2.1,3.3L1438.8,526.6 M1434.8,428.1c-0.5,0-1.1,0.1-1.5,0.4l-3,1.8c-0.5,0.3-0.9,0.7-1.1,1.2l-1.8,3.5    c-0.3,0.5-0.4,1.1-0.3,1.6l0.3,3.3l-0.4,3.2c0,0.2,0,0.4,0,0.7l0.3,3.1l-0.4,10.7c0,0.1,0,0.3,0,0.4l0.3,3v7c0,0.1,0,0.2,0,0.2    l0.3,3.6l-1,6.5c0,0.3,0,0.5,0,0.8l0.4,3.8v17.7v3.1l-0.5,14c0,0.2,0,0.5,0.1,0.7l0.7,3.3v3.2c0,0.3,0.1,0.7,0.2,1l1.2,3.5    c0.3,0.8,1,1.5,1.8,1.8l3,1.1c0,0,0,0,0,0c0.6,0.6,1.3,0.9,2.1,0.9c0,0,0,0,0,0h0.2l9.7,0.4c0,0,0.1,0,0.1,0c0.1,0,0.1,0,0.2,0    l10.6-0.7h3c0.5,0.2,1.1,0.3,1.6,0.4c0.9,0.2,1.8,0.3,1.8,0.3c0.2,0,0.3,0,0.5,0c0.1,0,0.1,0,0.2,0l13.9-0.9    c0.3,0,0.5-0.1,0.8-0.1l3.2-1.1c0.2-0.1,0.3-0.1,0.5-0.2l9.2-5c0.3-0.2,0.6-0.4,0.9-0.7l4.5-5.3c0.1-0.1,0.2-0.3,0.3-0.4l2-3.3    c0.1-0.2,0.2-0.4,0.3-0.6l2.1-6.5c0.1-0.2,0.1-0.5,0.1-0.8l0.3-5.4c0-0.1,0-0.2,0-0.3l-0.3-5.1c0-0.3-0.1-0.5-0.2-0.8l-1.2-3.5    c0-0.1-0.1-0.2-0.1-0.2l-1.4-3c-0.1-0.2-0.2-0.4-0.4-0.6l-4.4-5.7c-0.1-0.2-0.3-0.3-0.5-0.5l-2.7-2.3c-0.1-0.1-0.2-0.1-0.3-0.2    l-2.8-1.8l-0.5-0.5l2-2.1c0.1-0.1,0.2-0.2,0.3-0.3l3.9-5.6c0.2-0.2,0.3-0.5,0.4-0.7l2.4-6.6c0.1-0.3,0.2-0.6,0.2-0.9l0.3-5.3    c0-0.2,0-0.3,0-0.5l-0.9-8.8c0-0.3-0.1-0.7-0.3-1l-1.5-3.2c-0.1-0.1-0.1-0.3-0.2-0.4l-2-2.9c-0.1-0.1-0.2-0.2-0.3-0.4l-4.7-5    c-0.1-0.1-0.2-0.2-0.3-0.3l-2.4-2c-0.2-0.1-0.4-0.3-0.6-0.4l-6.3-3.2c-0.4-0.2-0.8-0.3-1.3-0.3L1434.8,428.1    C1434.9,428.1,1434.9,428.1,1434.8,428.1L1434.8,428.1z M1440.2,438.6l12.3-0.4l4.8,0.3c0.1,0,0.1,0,0.2,0h3.5c0.1,0,0.3,0,0.4,0    c0,0,0.1,0,0.2,0c1.9,0,7.9,0.2,9.6,0.3l6.2,2.1l2.3,1.8l4.5,4.5l1.1,2.2l0.8,2.8l0.7,4.7l-0.7,4.9l-0.6,2.6l-1.1,2.3l-3.6,4.7    l-2.2,1.6l-5.4,2.6l-33.3,0.7l-2.1-1.3l-0.9-1.9c0-0.3-0.1-0.5-0.1-0.7v-2.4l0.3-3.3c0-0.2,0-0.4,0-0.6l-0.4-3.9v-18l0.2-2.8l1-2    L1440.2,438.6L1440.2,438.6z M1439.8,485.2h32.4l4.2,0.4l2.8,1l5.5,2.7l5.8,6.6l0.8,2.7l0.3,4.6l-1.7,8.1l-1.1,2.4l-1.8,2.5    l-2.3,2.5l-5.3,3.4l-2.6,0.6l-10.4,0.9l-2.7-0.3c-0.1,0-0.2,0-0.3,0c-0.1,0-0.2,0-0.2,0l-3.5,0.3h-3.1c-0.3,0-0.6-0.1-1-0.1    c-0.9,0-2.2,0.1-2.5,0.1h-3.1c-0.2,0-0.4,0-0.6,0c-0.8,0-2.4,0.1-3.1,0.2l-3.6-0.4c-0.1,0-0.2,0-0.3,0c-0.1,0-0.3,0-0.4,0    l-2.3,0.3l-1.7-1l-1.1-1.8V501l0.4-3.1c0-0.2,0-0.4,0-0.7l-0.4-5v-2.6l1.4-3.3L1439.8,485.2L1439.8,485.2z"></path>		</g>		<g>			<path class="st0" d="M1641.9,531.6c-0.5,0-1-0.3-1.3-0.7l-3.6-6c0,0,0-0.1-0.1-0.1l-2.9-5.8l-2.7-2.7l-3.6-1.2    c0,0-20.2,0.4-20.2,0.4c0,0-0.1,0-0.1,0l-3.1-0.3l-32.1-0.3l-3.6,1.7l-2.6,2.5l-3.8,8.2c0,0.1-0.1,0.2-0.1,0.2l-2.4,3.3    c-0.3,0.4-0.7,0.6-1.2,0.6c-0.1,0-0.2,0-0.3,0l-2-0.5c-0.4-0.1-0.7-0.3-0.9-0.7c-0.2-0.3-0.3-0.8-0.2-1.1l1.5-6.3    c0-0.1,0-0.1,0.1-0.2l1.2-3c0-0.1,0.1-0.2,0.1-0.2l2.1-3.2l8.7-19.3l0.9-2.9c0-0.1,0.1-0.3,0.2-0.4l2.2-3.2l2.9-6.2l1-3.1    c0-0.1,0.1-0.1,0.1-0.2l5.1-9.8l5.3-12.8c0-0.1,0.1-0.1,0.1-0.2l1.9-3.1l4-9.7c0,0,0-0.1,0.1-0.1l5.1-9.7    c0.3-0.5,0.8-0.8,1.3-0.8h2.7c0.5,0,1,0.3,1.3,0.7l2.3,3.5c0,0.1,0.1,0.1,0.1,0.2l10.4,22.5c0,0.1,0.1,0.2,0.1,0.3l0.7,3.1l3.9,6    c0.1,0.1,0.1,0.3,0.2,0.4l1,3.3l1.7,2.9c0.1,0.1,0.1,0.2,0.1,0.3l1,3.2l1.5,2.9c0,0,0,0.1,0,0.1l1.3,3.2l1.9,3.2    c0,0.1,0.1,0.2,0.1,0.2l2.4,6.4l1.7,2.9c0.1,0.1,0.1,0.2,0.1,0.3l1,3.4l2.9,6.3l1.9,2.9c0,0.1,0.1,0.1,0.1,0.2l5.7,13.1    c0.1,0.1,0.1,0.2,0.1,0.4l0.5,2.9c0.1,0.8-0.4,1.5-1.2,1.7l-2.3,0.5c-0.1,0-0.2,0-0.3,0H1641.9z M1624.7,508.5l3.3-1.5l0.2-1.6    l-4.2-9.8l-2-2.9c-0.1-0.2-0.2-0.3-0.2-0.5l-0.7-2.9l-2.1-2.9c-0.1-0.1-0.1-0.2-0.1-0.3l-1.5-3.3c0-0.1-0.1-0.1-0.1-0.2l-1-3.5    l-4.6-9.5l-1.9-2.9c-0.1-0.1-0.1-0.2-0.2-0.3l-2.2-6.6l-2-3.2c-0.1-0.1-0.1-0.2-0.1-0.3l-2.4-6l-1.8-2.7l-1-1l-1.1,0.9l-1.1,2.7    c0,0,0,0.1-0.1,0.1l-1.5,2.9l-1,3.2c0,0.1-0.1,0.2-0.1,0.2l-6.6,13l-0.9,3.3c0,0.1-0.1,0.2-0.1,0.3l-3.4,6.4l-0.9,2.9    c0,0.1,0,0.1-0.1,0.2l-3.2,6.6c0,0.1-0.1,0.1-0.1,0.2l-2,2.9l-5.1,13v1.9l3.5,1c0.1,0,0.2,0.1,0.2,0.1H1624.7z"></path>			<path class="st0" d="M1601.6,436.1l2.3,3.5l10.4,22.5l0.8,3.3l4.1,6.2l1.1,3.5l1.8,3l1.1,3.3l1.5,3l1.4,3.3l2,3.3l2.4,6.5l1.8,3    l1.1,3.5l3,6.5l2,3l5.7,13.1l0.5,2.9l-2.3,0.5l0,0h-0.2l-3.6-6l-3-6l-3.2-3.2l-4.2-1.4l-20.4,0.5l-3.2-0.3l-32.5-0.3l-4.1,2    l-3,2.9l-3.9,8.5l-2.4,3.3l-2-0.5l1.5-6.3l1.2-3l2.1-3.3l8.8-19.5l0.9-3l2.3-3.3l3-6.3l1.1-3.2l5.1-9.8l5.3-12.8l2-3.2l4.1-9.8    l5.1-9.7H1601.6 M1575.8,510h49.2l4.4-2l0.3-2.9l-4.4-10.3l-2.1-3l-0.8-3.2l-2.3-3.2l-1.5-3.3l-1.1-3.6l-4.7-9.7l-2-3l-2.3-6.8    l-2.1-3.3l-2.4-6.2l-2-3l-2.1-2l-2.4,2l-1.2,3l-1.5,3l-1.1,3.3l-6.6,13.1l-0.9,3.5l-3.5,6.5l-0.9,3l-3.2,6.6l-2.1,3l-5.3,13.4    v3.3l4.5,1.4l0,0.2H1575.8 M1601.6,433.1h-2.7c-1.1,0-2.1,0.6-2.6,1.6l-5.1,9.7c0,0.1-0.1,0.2-0.1,0.3l-4,9.6l-1.8,3    c-0.1,0.1-0.2,0.3-0.2,0.4l-5.2,12.7l-5.1,9.7c-0.1,0.1-0.1,0.3-0.2,0.4l-1,3l-2.8,6l-2.1,3.1c-0.2,0.3-0.3,0.5-0.4,0.8l-0.8,2.8    l-8.6,19.1l-2,3.1c-0.1,0.2-0.2,0.3-0.3,0.5l-1.2,3c-0.1,0.1-0.1,0.3-0.1,0.4l-1.5,6.3c-0.2,0.8-0.1,1.6,0.4,2.3    c0.4,0.7,1.1,1.2,1.9,1.3l2,0.5c0.2,0.1,0.5,0.1,0.7,0.1c0.9,0,1.9-0.4,2.4-1.2l2.4-3.3c0.1-0.2,0.2-0.3,0.3-0.5l3.7-7.9l2.3-2.2    l3-1.5l31.6,0.3l3,0.3c0.1,0,0.2,0,0.3,0c0,0,0,0,0.1,0l19.9-0.4l3.1,1l2.3,2.3l2.8,5.6c0,0.1,0.1,0.1,0.1,0.2l3.6,6    c0.5,0.9,1.5,1.5,2.6,1.5h0.2c0.2,0,0.4,0,0.6-0.1l2.3-0.5c1.6-0.3,2.6-1.8,2.4-3.4l-0.5-2.9c0-0.3-0.1-0.5-0.2-0.7l-5.7-13.1    c-0.1-0.2-0.1-0.3-0.2-0.4l-1.8-2.8l-2.8-6.1l-1-3.3c-0.1-0.2-0.2-0.5-0.3-0.7l-1.7-2.8l-2.3-6.2c-0.1-0.2-0.1-0.3-0.2-0.5    l-1.9-3.1l-1.3-3.1c0-0.1-0.1-0.1-0.1-0.2l-1.4-2.8l-1-3.1c-0.1-0.2-0.2-0.4-0.3-0.6l-1.6-2.7l-0.9-3.1c-0.1-0.3-0.2-0.5-0.4-0.8    l-3.8-5.7l-0.6-2.8c0-0.2-0.1-0.4-0.2-0.6l-10.4-22.5c-0.1-0.1-0.1-0.3-0.2-0.4l-2.3-3.5C1603.6,433.6,1602.6,433.1,1601.6,433.1    L1601.6,433.1z M1597.7,453.7l1.4-2.8c0-0.1,0.1-0.2,0.1-0.2l0.8-2l1.4,2.2l2.3,5.9c0.1,0.2,0.2,0.4,0.3,0.5l1.9,3l2.1,6.4    c0.1,0.2,0.2,0.5,0.3,0.7l1.9,2.9l4.5,9.3l1,3.4c0,0.1,0.1,0.3,0.1,0.4l1.5,3.3c0.1,0.2,0.2,0.3,0.3,0.5l1.9,2.7l0.6,2.6    c0.1,0.4,0.2,0.7,0.5,1l1.9,2.8l4,9.3l0,0.4l-2.2,1h-47.5c0,0-0.1,0-0.1,0l-2.4-0.7v-0.5l4.9-12.6l1.9-2.7    c0.1-0.1,0.2-0.3,0.2-0.4l3.2-6.6c0.1-0.1,0.1-0.3,0.2-0.4l0.8-2.7l3.3-6.2c0.1-0.2,0.2-0.4,0.3-0.7l0.8-3.2l6.5-12.9    c0.1-0.1,0.1-0.3,0.2-0.4L1597.7,453.7L1597.7,453.7z"></path>		</g>		<g>			<path class="st0" d="M1741.6,531.8c-0.2,0-0.3,0-0.5-0.1H1715c-0.3,0-0.5-0.1-0.7-0.2l-3.3-1.8c-0.3-0.1-0.5-0.4-0.6-0.6l-2-3.9    c-0.1-0.2-0.1-0.3-0.2-0.5l-0.3-3.3c0-0.1,0-0.1,0-0.2l0.3-7l-0.3-3.1c0,0,0-0.1,0-0.1v-7.2c0-0.1,0-0.1,0-0.2l0.4-3.3l-0.8-3.4    c0-0.2-0.1-0.3,0-0.5l0.5-7.1l0-6.5l-0.3-3.6c0,0,0-0.1,0-0.1v-10.7c0-0.1,0-0.2,0-0.3l0.7-3.1l-1-24.9c0-0.2,0-0.3,0.1-0.5    l0.9-3c0-0.1,0-0.1,0.1-0.2l1.5-3.3c0.1-0.3,0.3-0.5,0.6-0.7c1.3-0.8,2.8-1.7,3.2-2c0.3-0.3,0.7-0.5,1.1-0.5h13.9    c0,0,0.1,0,0.1,0l4,0.3l3.8-0.3c0,0,0.1,0,0.1,0h4.7c0.1,0,0.1,0,0.2,0l12.5,1.4c0.1,0,0.3,0,0.4,0.1l13.1,5.3    c0.1,0.1,0.3,0.1,0.4,0.2l2.6,2.2l2.9,1.8c0.1,0.1,0.3,0.2,0.4,0.3l4.7,5.4c0,0,0.1,0.1,0.1,0.1l3.6,5.1c0,0.1,0.1,0.1,0.1,0.2    l3.3,6.5c0,0,0,0.1,0.1,0.1l1.4,3.5c0,0.1,0,0.1,0.1,0.2l0.7,3.3l1,3.1c0,0.1,0,0.2,0.1,0.2l1.1,6.8c0,0.1,0,0.2,0,0.3l-1.4,17.1    c0,0.1,0,0.3-0.1,0.4l-1.2,3.2l-0.7,3.1c0,0.1,0,0.1,0,0.2l-2.3,6.3c0,0.1-0.1,0.2-0.1,0.3l-2,3.3c0,0.1-0.1,0.1-0.1,0.2    l-8.8,10.6c-0.1,0.1-0.2,0.2-0.3,0.3l-8.8,5.6c-0.1,0.1-0.2,0.1-0.3,0.2l-10.3,3.3c-0.1,0-0.1,0-0.2,0l-6.5,1.2c0,0-0.1,0-0.1,0    l-4.7,0.4C1742,531.7,1741.8,531.8,1741.6,531.8z M1721.8,525.1l3.3-0.3c0,0,0.1,0,0.1,0l24.4-0.3l3.6-1l2.8-1.2    c0.1,0,0.1,0,0.2-0.1l3.7-1l8.3-5.2l1.8-2.6c0-0.1,0.1-0.1,0.2-0.2l4.8-5l1.4-2.5l1.5-3.3c0-0.1,0.1-0.1,0.1-0.2l1.9-3l0.4-3    c0-0.1,0-0.2,0.1-0.3l1-3.2l1.2-7l-0.4-13.5l-0.4-3l-1-3.5l-3.5-9.2l-6.6-8.2l-4.8-4.4l-3-1.9l-3.5-1.7l-3.2-1.2    c-5.8-1.5-8.7-2.3-10.1-2.8h-17c-0.4,0-2.3,0.2-3.2,0.2c-0.2,0-0.4,0-0.5,0h-6.3l-3.1,1.4l-1.1,2.6l-0.4,3.3l0.3,45.7    c0,0.1,0,0.1,0,0.2l-0.4,3.2l0.7,3.2c0,0.1,0,0.3,0,0.4l-0.3,6.5l0,6.6l0.4,4c0,0.1,0,0.2,0,0.4l-0.4,3.4v2.7l1.4,2.9l3.1,1.7    c0.1,0,0.1,0.1,0.2,0.1H1721.8z"></path>			<path class="st0" d="M1741.3,431.3l12.5,1.4l13.1,5.3l2.7,2.3l3,1.8l4.7,5.4l3.6,5.1l3.3,6.5l1.4,3.5l0.8,3.3l1.1,3.2l1.1,6.8    l-1.4,17.1l-1.2,3.3l-0.8,3.2l-2.3,6.3l-2,3.3l-8.8,10.6l-8.8,5.6l-10.3,3.3l-6.5,1.2l-5.3,0.5h0H1715l-3.3-1.8l-2-3.9l-0.3-3.3    l0.3-7.1l-0.3-3.2v-7.3l0.5-3.6l-0.9-3.6l0.5-7.1v-3.5v-3.2l-0.3-3.6v-10.7l0.8-3.3l-1.1-25.1l0.9-3l1.5-3.3c0,0,3.5-2.1,3.5-2.3    h13.9l4.1,0.3l3.9-0.3H1741.3 M1725.8,435.2c-0.2,0-0.4,0-0.4,0h-6.8l-3.9,1.8l-1.4,3.3l-0.5,3.6l0.3,45.8l-0.5,3.5l0.8,3.5    l-0.3,6.5v6.8l0.5,4.1l-0.5,3.5v3.2l1.8,3.6l3.5,2l0,0l-0.6,0.3h3.9l3.3-0.3l24.6-0.3l3.9-1.1l2.9-1.2l3.9-1.1l8.8-5.4l2-2.9    l5-5.1l1.5-2.7l1.5-3.3l2.1-3.3l0.5-3.3l1.1-3.3l1.2-7.3l-0.5-13.7l-0.5-3.2l-1.1-3.6l-3.6-9.5l-6.8-8.5l-5-4.5l-3.2-2l-3.6-1.8    l-3.3-1.2c0,0-10.4-2.7-10.4-2.9h-17.2C1728.9,435.1,1726.7,435.2,1725.8,435.2 M1741.6,530.2L1741.6,530.2 M1741.6,530.2    C1741.6,530.3,1741.6,530.3,1741.6,530.2c-0.1,0.1-0.2,0-0.2,0H1741.6 M1741.3,428.3h-4.7c-0.1,0-0.2,0-0.2,0l-3.7,0.3l-3.9-0.3    c-0.1,0-0.1,0-0.2,0h-13.9c-0.8,0-1.5,0.3-2.1,0.8c-0.5,0.3-1.8,1.2-3,1.9c-0.5,0.3-0.9,0.8-1.2,1.3l-1.5,3.3    c-0.1,0.1-0.1,0.2-0.1,0.4l-0.9,3c-0.1,0.3-0.1,0.7-0.1,1l1,24.7l-0.7,2.9c0,0.2-0.1,0.4-0.1,0.7V479c0,0.1,0,0.2,0,0.2l0.3,3.5    v3v3.4l-0.4,7c0,0.3,0,0.6,0.1,0.9l0.8,3.1l-0.4,3.1c0,0.1,0,0.2,0,0.4v7.3c0,0.1,0,0.2,0,0.3l0.3,3l-0.3,6.9c0,0.1,0,0.3,0,0.4    l0.3,3.3c0,0.4,0.1,0.7,0.3,1.1l2,3.9c0.3,0.5,0.7,1,1.2,1.3l3.3,1.8c0.4,0.2,0.9,0.4,1.4,0.4h25.9c0.2,0,0.4,0.1,0.6,0.1    c0.3,0,0.6-0.1,0.9-0.1l4.5-0.4c0.1,0,0.2,0,0.3,0l6.5-1.2c0.1,0,0.3-0.1,0.4-0.1l10.3-3.3c0.2-0.1,0.5-0.2,0.7-0.3l8.8-5.6    c0.3-0.2,0.5-0.4,0.7-0.6l8.8-10.6c0.1-0.1,0.2-0.3,0.3-0.4l2-3.3c0.1-0.2,0.2-0.3,0.2-0.5l2.3-6.3c0-0.1,0.1-0.2,0.1-0.3l0.7-3    l1.1-3.2c0.1-0.3,0.1-0.5,0.2-0.8l1.4-17.1c0-0.2,0-0.5,0-0.7l-1.1-6.8c0-0.2-0.1-0.3-0.1-0.5l-1-3l-0.7-3.2    c0-0.1-0.1-0.3-0.1-0.4l-1.4-3.5c0-0.1-0.1-0.2-0.1-0.3l-3.3-6.5c-0.1-0.1-0.1-0.2-0.2-0.4l-3.6-5.1c-0.1-0.1-0.1-0.2-0.2-0.2    l-4.7-5.4c-0.2-0.2-0.5-0.5-0.7-0.6l-2.8-1.7l-2.5-2.1c-0.2-0.2-0.5-0.4-0.8-0.5l-13.1-5.3c-0.3-0.1-0.5-0.2-0.8-0.2l-12.5-1.4    C1741.5,428.3,1741.4,428.3,1741.3,428.3L1741.3,428.3z M1729.1,438.1h16.6c0.4,0.1,0.9,0.3,1.3,0.4c1,0.3,2.3,0.6,3.6,1    c2.3,0.6,4.5,1.2,5.1,1.3l3,1.1l3.3,1.7l2.8,1.7l4.6,4.2l6.4,7.9l3.4,9l1,3.3l0.4,2.8l0.4,13.3l-1.1,6.7l-1,3.1    c-0.1,0.2-0.1,0.3-0.1,0.5l-0.4,2.7l-1.8,2.8c-0.1,0.1-0.1,0.2-0.2,0.4l-1.5,3.2l-1.3,2.3l-4.7,4.9c-0.1,0.1-0.2,0.3-0.3,0.4    l-1.6,2.3l-7.8,4.9l-3.5,0.9c-0.1,0-0.3,0.1-0.4,0.1l-2.7,1.1l-3.4,0.9l-24.2,0.3c-0.1,0-0.2,0-0.2,0l-3.2,0.3h-1.9l-2.5-1.4    l-1.1-2.2v-2.3l0.4-3.3c0-0.2,0-0.5,0-0.7l-0.4-3.9v-6.6l0.3-6.4c0-0.3,0-0.5-0.1-0.8l-0.6-3l0.4-3c0-0.1,0-0.3,0-0.4l-0.3-45.6    l0.4-3l0.8-1.9l2.3-1h5.9c0.2,0,0.4,0,0.6,0C1726.7,438.2,1728.5,438.1,1729.1,438.1L1729.1,438.1z M1741.6,533.2L1741.6,533.2    L1741.6,533.2L1741.6,533.2z"></path>		</g>		<g>			<path class="st0" d="M1898.7,532.3l-9.8-0.9c-0.1,0-0.1,0-0.2,0l-6.2-1.5c-0.1,0-0.1,0-0.2-0.1l-6.8-2.7c-0.1,0-0.1-0.1-0.2-0.1    l-2.7-1.5l-3.6-1.8c-0.1,0-0.1-0.1-0.2-0.1l-6-4.2c-0.1-0.1-0.3-0.2-0.4-0.4l-1.9-2.7l-2.8-3.1c-0.1-0.1-0.1-0.1-0.2-0.2    l-3.5-5.4c0-0.1-0.1-0.1-0.1-0.2l-4.7-10.4c0-0.1-0.1-0.2-0.1-0.3l-0.8-3.3c0-0.1,0-0.1,0-0.2l-0.3-3.5l-0.7-3.2    c0-0.1,0-0.2,0-0.3v-10.7c0-0.1,0-0.2,0-0.3l1.5-7.3l0.3-3.1c0-0.1,0-0.2,0-0.2l1.1-3.9c0-0.1,0-0.1,0.1-0.2l1.4-3.2    c0-0.1,0.1-0.1,0.1-0.2l4.1-6.6c0,0,0.1-0.1,0.1-0.1l3.9-5.1c0.1-0.1,0.2-0.2,0.2-0.2l3.3-2.7l2.2-2.2c0.1-0.1,0.2-0.2,0.3-0.2    l12.5-7.1c0.1,0,0.2-0.1,0.2-0.1l3-1.1c0,0,0.1,0,0.2,0l7.7-1.8c0.1,0,0.2,0,0.2,0c0.3,0,6.9-0.5,8.4-0.5c0.1,0,0.3,0,0.4,0h4.6    c0.1,0,0.2,0,0.3,0l3.2,0.7l3.8,0.3c0.2,0,0.3,0,0.4,0.1l13.1,5.3c0.1,0,0.2,0.1,0.3,0.2l8.5,6.2c0.1,0,0.1,0.1,0.2,0.1l5.1,5.1    c0.1,0.1,0.2,0.2,0.3,0.3l1.8,3.2l2.3,3.1c0,0.1,0.1,0.1,0.1,0.2l1.5,2.7c0,0.1,0.1,0.2,0.1,0.3l3.3,10.4c0,0.1,0.1,0.2,0.1,0.3    l0.9,12.7c0,0.1,0,0.1,0,0.2l-0.5,9.4c0,0,0,0.1,0,0.1l-0.5,3.3c0,0.1,0,0.2-0.1,0.3l-1.3,3.5l-0.7,3.5c0,0.1-0.1,0.3-0.2,0.4    l-6.8,12.5c-0.1,0.1-0.2,0.2-0.3,0.3l-7.4,7.4c0,0-0.1,0.1-0.1,0.1l-2.9,2.3c-0.1,0-0.1,0.1-0.2,0.1l-3,1.8c0,0-0.1,0.1-0.2,0.1    l-6.6,3c-0.1,0-0.1,0.1-0.2,0.1l-3.5,1.1c-0.1,0-0.1,0-0.2,0l-7.3,1.4c0,0-0.1,0-0.1,0l-3.5,0.3l-3.7,0.4    c-0.2,0.1-0.5,0.2-0.8,0.2C1898.8,532.3,1898.8,532.3,1898.7,532.3z M1898.6,525.4c0.3,0,0.6,0.1,0.8,0.2l4-0.2l10.2-2.1l2.7-0.8    l9.3-4.8l9.4-9.7l1.9-2.8l3.3-8.9l0.4-3.2c0-0.1,0-0.2,0.1-0.3l1.3-3.3l0.4-3.3l-0.7-14.1l-1.4-6.4l-1.4-3c0-0.1-0.1-0.1-0.1-0.2    l-0.9-2.8l-5.5-9l-2.1-2.1l-7.7-5.9l-3.1-1.8l-9.6-2.9c-3.5-0.6-5.3-1-6.4-1.3h-4.8l-11.5,0.9l-12.4,4.8l-8.1,6.1l-6.3,8.5    l-1.3,2.7l-2.4,6.6l-1.9,9.7v13.6l1.1,3.1c0,0.1,0.1,0.2,0.1,0.3l0.4,3.2l0.8,3.1l2.1,2.8c0.1,0.1,0.1,0.2,0.2,0.3l1.5,3.4    l1.4,2.5l4.5,5.3l4.4,4.2l3.1,1.4c0.1,0,0.1,0,0.2,0.1l2.2,1.3l3.2,1.4l7,2.3l6.5,0.9L1898.6,525.4L1898.6,525.4z"></path>			<path class="st0" d="M1898.3,430.5c0.2,0,0.3,0,0.3,0h4.7l3.3,0.8l3.9,0.3l13.1,5.3l8.5,6.2l5.1,5.1l1.8,3.3l2.4,3.2l1.5,2.7    l3.3,10.4l0.9,12.7l-0.5,9.4l-0.5,3.3l-1.4,3.6l-0.8,3.6l-6.8,12.5l-7.4,7.4l-2.9,2.3l-3,1.8l-6.6,3l-3.5,1.1l-7.3,1.4l-3.5,0.3    l-4.4,0.5l0,0.2l-9.8-0.9l-6.2-1.5l-6.8-2.7l-2.7-1.5l-3.6-1.8l-6-4.2l-2-2.7l-2.9-3.2l-3.5-5.4l-4.7-10.4l-0.8-3.3l-0.3-3.6    l-0.8-3.3v-10.7l1.5-7.4l0.3-3.2l1.1-3.9l1.4-3.2l4.1-6.6l3.9-5.1l3.3-2.7l2.3-2.3l12.5-7.1l3-1.1l7.7-1.8    C1889.9,431,1896.7,430.5,1898.3,430.5 M1898.4,526.9h0.2v0.3l5-0.3l10.4-2.1l2.9-0.9l9.7-5l9.7-10l2.1-3l3.5-9.2l0.5-3.3    l1.4-3.5l0.5-3.6l-0.8-14.3l-1.5-6.6l-1.5-3.2l-0.9-3l-5.7-9.4l-2.3-2.3l-7.9-6l-3.3-2l-9.8-3c0,0-6.5-1.2-6.5-1.4h-5.1    l-11.8,0.9l-12.8,5l-8.5,6.3l-6.5,8.8l-1.4,2.9l-2.4,6.8l-2,10v14l1.2,3.3l0.5,3.3l0.9,3.5l2.3,3l1.5,3.5l1.5,2.7l4.7,5.4    l4.7,4.4l3.3,1.5l2.3,1.4l3.3,1.5l7.3,2.4l6.6,0.9L1898.4,526.9 M1898.3,427.5C1898.3,427.5,1898.3,427.5,1898.3,427.5    c-1.6,0-7.8,0.4-8.5,0.5c-0.2,0-0.3,0-0.5,0.1l-7.7,1.8c-0.1,0-0.2,0.1-0.3,0.1l-3,1.1c-0.2,0.1-0.3,0.1-0.5,0.2l-12.5,7.1    c-0.2,0.1-0.5,0.3-0.6,0.5l-2.2,2.2l-3.2,2.6c-0.2,0.1-0.3,0.3-0.5,0.5l-3.9,5.1c-0.1,0.1-0.1,0.2-0.2,0.3l-4.1,6.6    c-0.1,0.1-0.1,0.3-0.2,0.4l-1.4,3.2c-0.1,0.1-0.1,0.3-0.1,0.4l-1.1,3.9c0,0.2-0.1,0.3-0.1,0.5l-0.3,3l-1.5,7.2    c0,0.2-0.1,0.4-0.1,0.6v10.7c0,0.2,0,0.4,0.1,0.7l0.7,3.1l0.3,3.4c0,0.1,0,0.3,0.1,0.4l0.8,3.3c0,0.2,0.1,0.4,0.2,0.6l4.7,10.4    c0.1,0.1,0.1,0.3,0.2,0.4l3.5,5.4c0.1,0.1,0.2,0.3,0.3,0.4l2.8,3l1.9,2.6c0.2,0.3,0.4,0.5,0.7,0.7l6,4.2c0.1,0.1,0.2,0.2,0.4,0.2    l3.6,1.8l2.7,1.5c0.1,0.1,0.2,0.1,0.3,0.2l6.8,2.7c0.1,0.1,0.3,0.1,0.4,0.1l6.2,1.5c0.1,0,0.3,0.1,0.4,0.1l9.8,0.9    c0.1,0,0.2,0,0.3,0c0.4,0,0.8-0.1,1.2-0.3l3.5-0.4l3.4-0.3c0.1,0,0.2,0,0.3,0l7.3-1.4c0.1,0,0.2,0,0.3-0.1l3.5-1.1    c0.1,0,0.2-0.1,0.4-0.1l6.6-3c0.1,0,0.2-0.1,0.3-0.2l3-1.8c0.1-0.1,0.2-0.1,0.3-0.2l2.9-2.3c0.1-0.1,0.2-0.2,0.3-0.2l7.4-7.4    c0.2-0.2,0.4-0.4,0.5-0.7l6.8-12.5c0.1-0.3,0.2-0.5,0.3-0.8l0.7-3.4l1.3-3.4c0.1-0.2,0.1-0.4,0.2-0.6l0.5-3.3c0-0.1,0-0.2,0-0.3    l0.5-9.4c0-0.1,0-0.2,0-0.4l-0.9-12.7c0-0.2-0.1-0.5-0.1-0.7l-3.3-10.4c-0.1-0.2-0.1-0.4-0.2-0.5l-1.5-2.7    c-0.1-0.1-0.1-0.2-0.2-0.4l-2.3-3l-1.7-3.1c-0.1-0.3-0.3-0.5-0.5-0.7l-5.1-5.1c-0.1-0.1-0.2-0.2-0.3-0.3l-8.5-6.2    c-0.2-0.1-0.4-0.3-0.7-0.4l-13.1-5.3c-0.3-0.1-0.6-0.2-0.9-0.2l-3.7-0.3l-3.1-0.7c-0.2,0-0.4-0.1-0.7-0.1h-4.5    C1898.6,427.5,1898.4,427.5,1898.3,427.5L1898.3,427.5z M1898.8,438.1h4.6c0.3,0.1,0.6,0.2,0.8,0.2c0.6,0.1,1.5,0.3,2.3,0.5    c1.3,0.3,2.6,0.5,3.1,0.6l9.3,2.9l2.9,1.7l7.6,5.8l1.9,1.9l5.4,8.7l0.8,2.6c0,0.1,0.1,0.3,0.2,0.4l1.4,2.9l1.4,6.1l0.7,13.8    l-0.4,3l-1.2,3.1c-0.1,0.2-0.1,0.5-0.2,0.7l-0.4,3l-3.2,8.5l-1.8,2.5l-9.2,9.4l-9,4.6l-2.5,0.8l-10.1,2l-3.4,0.2    c-0.4-0.1-0.7-0.2-1.1-0.2h-0.1l-4.8-0.3l-6.3-0.9l-6.8-2.3l-3-1.4l-2.1-1.3c-0.1-0.1-0.2-0.1-0.3-0.2l-2.9-1.3l-4.2-3.9    l-4.4-5.1l-1.3-2.3l-1.5-3.3c-0.1-0.2-0.2-0.4-0.4-0.6l-1.9-2.5l-0.7-2.7l-0.4-3.1c0-0.2-0.1-0.4-0.2-0.6l-1-2.8V476l1.9-9.5    l2.3-6.4l1.2-2.5l6.1-8.2l7.8-5.8l12-4.7L1898.8,438.1L1898.8,438.1z"></path>		</g>		<g>			<path class="st0" d="M2037.1,533.7c-0.1,0-0.2,0-0.3,0l-6.6-1.2c-0.1,0-0.2,0-0.3-0.1l-9.4-3.6c-0.1,0-0.2-0.1-0.3-0.2l-5.4-3.8    c-0.1-0.1-0.2-0.2-0.3-0.3l-2.6-3c0,0-0.1-0.1-0.1-0.1l-1.8-2.6c-0.1-0.1-0.2-0.3-0.2-0.4l-0.8-2.6c-0.1-0.4-0.1-0.9,0.2-1.3    c0.3-0.4,0.7-0.6,1.1-0.6c0,0,2.6-0.2,2.7-0.2c0.4,0,0.7,0.1,1,0.4l7.8,7.2l6.2,2.9l5.9,1.6l8.3,0.6l7.5-0.7l5.3-1.2l3.5-1    l3.1-1.2l5.5-4.3l4.4-5.2l0.7-2.7l0.6-5.1v-4.6l-1.1-3l-3.7-5.3l-8.7-4.4l-9.7-2.2l-13.8-0.9c-0.1,0-0.2,0-0.3,0l-3.2-0.9    l-3.6-0.1c-0.2,0-0.3,0-0.4-0.1l-5.9-2.1c-0.1,0-0.2-0.1-0.2-0.1l-6.5-3.6c-0.1-0.1-0.2-0.2-0.3-0.2l-2.4-2.4    c-0.1-0.1-0.1-0.1-0.2-0.2l-3.9-5.4c-0.1-0.1-0.2-0.3-0.2-0.4l-2.3-6.6c0-0.1-0.1-0.3-0.1-0.4l-0.2-5.1c0-0.1,0-0.2,0-0.2    l0.6-4.5c0-0.1,0-0.1,0-0.2l0.9-3.5c0-0.1,0-0.2,0.1-0.2l2.7-6.2c0.1-0.2,0.2-0.3,0.3-0.4l5.9-6.2c0.1-0.1,0.2-0.2,0.3-0.2l4.5-3    c0.1-0.1,0.2-0.1,0.3-0.2l3.2-1.2c0.1,0,0.1,0,0.2-0.1l10.7-2.6c0.1,0,0.2,0,0.3,0c0,0,12.1,0.2,12.1,0.2c0.1,0,0.3,0,0.4,0.1    l8.8,2.4c0.1,0,0.2,0.1,0.3,0.1l6.2,3c0.1,0,0.2,0.1,0.3,0.2l2.7,2.1c0.1,0.1,0.1,0.1,0.2,0.2l4.5,5.1c0.1,0.2,0.3,0.4,0.3,0.6    l0.9,3.2c0.1,0.5,0,1-0.3,1.4c-0.3,0.3-0.7,0.5-1.1,0.5c-0.1,0-0.2,0-0.3,0l-2.6-0.5c-0.2,0-0.5-0.1-0.7-0.3l-8.5-6.7l-3.4-2    l-3.1-1.1l-6.8-1.2l-5.2-0.6l-5,0.1l-3.3,0.7l-9,3.9l-4.9,4l-2.3,2.7l-1.9,3l-1.3,2.9l0.6,9.9l0.8,3.3l1.1,2.8l2.6,2.5l2.2,2    l2.9,1.6l3,1.4l6.8,1.9l14.2,1.3c0.1,0,0.1,0,0.2,0l3.3,0.7l3.2,0.1c0.1,0,0.2,0,0.3,0.1l10.9,3c0.1,0,0.3,0.1,0.4,0.2l5.9,3.6    c0.1,0.1,0.2,0.1,0.2,0.2l2.6,2.4c0.1,0.1,0.1,0.1,0.2,0.2l2.1,3c0,0.1,0.1,0.1,0.1,0.2l1.5,3c0,0.1,0.1,0.2,0.1,0.3l0.9,3.2    c0,0.1,0.1,0.3,0.1,0.4v10.7c0,0.2,0,0.3-0.1,0.5l-1.2,3.5l-1,3.4c-0.1,0.2-0.2,0.5-0.4,0.6l-7.9,7.9c-0.1,0.1-0.1,0.1-0.2,0.2    l-2.7,1.8c-0.1,0.1-0.2,0.1-0.2,0.1l-9.8,4.2c-0.1,0-0.2,0.1-0.3,0.1l-3.5,0.8c0,0-0.1,0-0.1,0l-3.5,0.5c-0.1,0-0.1,0-0.2,0    C2048.3,533.4,2037.1,533.7,2037.1,533.7z"></path>			<path class="st0" d="M2036.2,429.3l12.1,0.2l8.8,2.4l6.2,3l2.7,2.1l4.5,5.1l0.9,3.2l-2.6-0.5l-8.6-6.8l-3.6-2.1l-3.3-1.2    l-6.9-1.2l-5.4-0.6l-5.3,0.2l-3.6,0.8l-9.4,4.1l-5.1,4.2l-2.4,2.9l-2,3.2l-1.5,3.3l0.6,10.4l0.9,3.5l1.2,3.2l2.9,2.7l2.4,2.1    l3,1.7l3.2,1.5l7.1,2l14.3,1.4l3.5,0.8l3.3,0.2l10.9,3l5.9,3.6l2.6,2.4l2.1,3l1.5,3l0.9,3.2v10.7l-1.2,3.5l-1.1,3.5l-7.9,7.9    l-2.7,1.8l-9.8,4.2l-3.5,0.8l-3.5,0.5l-11.2,0.3l-6.6-1.2l-9.4-3.6l-5.4-3.8l-2.6-3l-1.8-2.6l-0.8-2.6l2.6-0.2l8,7.4l6.5,3    l6.2,1.7l8.6,0.6l7.7-0.8l5.4-1.2l3.6-1.1l3.3-1.4l5.7-4.5l4.7-5.6l0.8-3.2l0.6-5.3v-5l-1.2-3.5l-4.1-5.7l-9.2-4.7l-10-2.3    l-13.9-0.9l-3.3-0.9l-3.8-0.2l-5.9-2.1l-6.5-3.6l-2.4-2.4l-3.9-5.4l-2.3-6.6l-0.2-5.1l0.6-4.5l0.9-3.5l2.7-6.2l5.9-6.2l4.5-3    l3.2-1.2L2036.2,429.3 M2036.2,426.3c-0.2,0-0.5,0-0.7,0.1l-10.7,2.6c-0.1,0-0.2,0.1-0.4,0.1l-3.2,1.2c-0.2,0.1-0.4,0.2-0.6,0.3    l-4.5,3c-0.2,0.1-0.4,0.3-0.5,0.4l-5.9,6.2c-0.2,0.3-0.4,0.5-0.6,0.9l-2.7,6.2c-0.1,0.1-0.1,0.3-0.2,0.4l-0.9,3.5    c0,0.1-0.1,0.2-0.1,0.4l-0.6,4.5c0,0.2,0,0.3,0,0.5l0.2,5.1c0,0.3,0.1,0.6,0.2,0.9l2.3,6.6c0.1,0.3,0.2,0.5,0.4,0.8l3.9,5.4    c0.1,0.1,0.2,0.3,0.3,0.4l2.4,2.4c0.2,0.2,0.4,0.4,0.7,0.5l6.5,3.6c0.1,0.1,0.3,0.1,0.4,0.2l5.9,2.1c0.3,0.1,0.6,0.2,0.9,0.2    l3.4,0.1l3,0.8c0.2,0.1,0.4,0.1,0.6,0.1l13.7,0.9l9.4,2.1l8.2,4.2l3.4,4.8l0.9,2.6v4.3l-0.6,4.9l-0.5,2.3l-4,4.8l-5.2,4.1    l-2.8,1.1l-3.4,1l-5.2,1.1l-7.3,0.7l-8.1-0.6l-5.7-1.5l-5.8-2.7l-7.7-7.1c-0.6-0.5-1.3-0.8-2-0.8c-0.1,0-0.1,0-0.2,0l-2.6,0.2    c-0.9,0.1-1.8,0.5-2.3,1.3c-0.5,0.7-0.7,1.7-0.4,2.6l0.8,2.6c0.1,0.3,0.2,0.6,0.4,0.9l1.8,2.6c0.1,0.1,0.1,0.1,0.2,0.2l2.6,3    c0.2,0.2,0.4,0.4,0.6,0.5l5.4,3.8c0.2,0.1,0.4,0.2,0.6,0.3l9.4,3.6c0.2,0.1,0.4,0.1,0.5,0.2l6.6,1.2c0.2,0,0.4,0,0.5,0    c0,0,0.1,0,0.1,0l11.2-0.3c0.1,0,0.2,0,0.3,0l3.5-0.5c0.1,0,0.2,0,0.2,0l3.5-0.8c0.2,0,0.4-0.1,0.5-0.2l9.8-4.2    c0.2-0.1,0.3-0.2,0.5-0.3l2.7-1.8c0.2-0.1,0.3-0.2,0.5-0.4l7.9-7.9c0.3-0.3,0.6-0.8,0.7-1.2l1-3.4l1.2-3.4c0.1-0.3,0.2-0.6,0.2-1    v-10.7c0-0.3,0-0.6-0.1-0.8l-0.9-3.2c-0.1-0.2-0.1-0.4-0.2-0.5l-1.5-3c-0.1-0.1-0.1-0.3-0.2-0.4l-2.1-3c-0.1-0.2-0.3-0.3-0.4-0.5    l-2.6-2.4c-0.1-0.1-0.3-0.3-0.5-0.4l-5.9-3.6c-0.2-0.1-0.5-0.3-0.8-0.3l-10.9-3c-0.2-0.1-0.4-0.1-0.7-0.1l-3.1-0.1l-3.2-0.7    c-0.1,0-0.2,0-0.4-0.1l-14.1-1.3l-6.6-1.8l-2.9-1.4l-2.7-1.5l-2.1-1.9l-2.3-2.2l-0.9-2.4l-0.8-3l-0.5-9.4l1.1-2.5l1.7-2.8    l2.1-2.5l4.6-3.8l8.7-3.8l3.1-0.6l4.8-0.1l5.1,0.6l6.6,1.1l2.8,1l3.2,1.9l8.4,6.7c0.4,0.3,0.8,0.5,1.3,0.6l2.6,0.5    c0.2,0,0.3,0,0.5,0c0.8,0,1.7-0.4,2.2-1c0.7-0.8,0.9-1.8,0.7-2.8l-0.9-3.2c-0.1-0.4-0.3-0.8-0.6-1.2l-4.5-5.1    c-0.1-0.1-0.3-0.3-0.4-0.4l-2.7-2.1c-0.2-0.1-0.3-0.2-0.5-0.3l-6.2-3c-0.2-0.1-0.3-0.1-0.5-0.2l-8.8-2.4    c-0.2-0.1-0.5-0.1-0.8-0.1L2036.2,426.3C2036.2,426.3,2036.2,426.3,2036.2,426.3L2036.2,426.3z"></path>		</g>	</g>	<g>		<g>			<path class="st0" d="M666.8,351.9c-0.1,0-0.2,0-0.3,0l-4.7-0.9c-0.5-0.1-0.9-0.5-1.1-1l-3.2-8.8c0-0.1-0.1-0.3-0.1-0.4l-0.5-7.9    c0-0.1,0-0.2,0-0.3l1.3-8.6l-0.9-107c0-0.1,0-0.1,0-0.2l0.9-7.9l-0.5-89.5c0-0.2,0-0.4,0.1-0.6l3.9-8.3c0.1-0.3,0.3-0.5,0.6-0.7    l8.3-4.8c0.2-0.1,0.4-0.2,0.7-0.2c0,0,8.4-0.5,8.4-0.5c0,0,0.1,0,0.1,0l9.6,0.9c0,0,16.6-0.9,16.6-0.9c0,0,18.4,1.2,18.4,1.2    l23.9-1.7c0,0,0.1,0,0.1,0c0.1,0,0.1,0,0.2,0l8.6,0.9l9.1-0.9c0,0,0.1,0,0.1,0c0.1,0,0.1,0,0.2,0l9.7,1.4c0.1,0,0.2,0,0.3,0.1    l7.9,3c0.6,0.2,1,0.9,1,1.6l-0.5,3.9c-0.1,0.7-0.6,1.2-1.3,1.3l-13.1,1.4c-0.1,0-0.1,0-0.2,0h-25.3l-12.6,1.2c0,0-0.2,0-0.2,0    l-41.8-1.7l-7.5,1.2l-9.4,3.8l-3.6,8.7l0.4,41.2c0,0.1,0,0.1,0,0.2l-0.9,7.9l0.9,51.5l3.1,6.8l8.9,5.1c0,0,39.5-1.6,39.5-1.6    c0.1,0,0.2,0,0.3,0l8.1,1.6l14.1-1.6c0.1,0,0.1,0,0.2,0c0,0,17.1,0.3,17.1,0.3c0.2,0,0.3,0,0.5,0.1l8.8,3.2    c0.5,0.2,0.9,0.7,1,1.3l0.5,5.3c0.1,0.8-0.5,1.5-1.3,1.6l-13.1,1.7c-0.1,0-0.1,0-0.2,0c0,0-0.1,0-0.1,0l-13.5-0.9l-18.6,1.4    c0,0-0.1,0-0.1,0c-0.1,0-0.1,0-0.2,0l-7.6-0.9l-8.2,1.8c-0.1,0-0.2,0-0.3,0c0,0-9.1-0.5-9.1-0.5c-0.1,0-0.1,0-0.2,0l-8.2-1.3    l-8.8,0.4l-8.9,3.6l-4.3,7.8l1.3,8.3c0,0.1,0,0.2,0,0.3l-1.4,59.5l0.4,8.2c0,0.1,0,0.3,0,0.4l-1.8,8.3    C668.1,351.4,667.5,351.9,666.8,351.9z"></path>			<path class="st0" d="M766.6,105.4l9.7,1.4l7.9,3l-0.5,3.9l-13.1,1.4h-25.4l-12.7,1.2l-42-1.7l-7.9,1.2l-10.1,4.1l-3.9,9.5    l0.5,41.5l-0.9,8l0.9,52l3.5,7.6l9.7,5.6l39.9-1.7l8.3,1.7l14.3-1.7l17.1,0.3l8.8,3.2l0.5,5.3l-13.1,1.7l-13.6-0.9l-18.7,1.4    l-7.9-0.9l-8.5,1.8l-9.1-0.5l-8.3-1.4l-9.2,0.5l-9.7,3.9l-4.8,8.8l1.4,8.8l-1.4,59.5l0.5,8.3l-1.8,8.3l-4.7-0.9l-3.2-8.8    l-0.5-7.9l1.4-8.8L658.9,217l0.9-8l-0.5-89.6l3.9-8.3l8.3-4.8l8.3-0.5l9.7,0.9l16.6-0.9l18.4,1.2l24-1.7l8.8,0.9L766.6,105.4     M748.6,102.4c-0.1,0-0.1,0-0.2,0l-23.8,1.6l-18.2-1.2c-0.1,0-0.1,0-0.2,0c-0.1,0-0.1,0-0.2,0l-16.4,0.9l-9.4-0.9    c-0.1,0-0.2,0-0.3,0c-0.1,0-0.1,0-0.2,0l-8.3,0.5c-0.5,0-0.9,0.2-1.3,0.4l-8.3,4.8c-0.5,0.3-0.9,0.8-1.2,1.3l-3.9,8.3    c-0.2,0.4-0.3,0.8-0.3,1.3l0.5,89.4l-0.9,7.8c0,0.1,0,0.2,0,0.4l0.9,106.8l-1.3,8.5c0,0.2,0,0.4,0,0.6l0.5,7.9    c0,0.3,0.1,0.6,0.2,0.8l3.2,8.8c0.4,1,1.2,1.7,2.3,1.9l4.7,0.9c0.2,0,0.4,0.1,0.6,0.1c1.4,0,2.6-1,2.9-2.4l1.8-8.3    c0.1-0.3,0.1-0.5,0.1-0.8l-0.4-8.2l1.4-59.4c0-0.2,0-0.4,0-0.5l-1.2-7.7l3.8-6.9l8.2-3.3l8.4-0.4l8,1.3c0.1,0,0.2,0,0.3,0    l9.1,0.5c0,0,0.1,0,0.1,0c0.2,0,0.4,0,0.6-0.1l8-1.7l7.4,0.8c0.1,0,0.2,0,0.3,0c0.1,0,0.1,0,0.2,0l18.5-1.3l13.4,0.9    c0.1,0,0.1,0,0.2,0c0.1,0,0.3,0,0.4,0l13.1-1.7c1.6-0.2,2.8-1.6,2.6-3.2l-0.5-5.3c-0.1-1.2-0.9-2.2-2-2.6l-8.8-3.2    c-0.3-0.1-0.6-0.2-1-0.2l-17.1-0.3c0,0,0,0-0.1,0c-0.1,0-0.2,0-0.3,0l-13.9,1.6l-7.8-1.6c-0.2,0-0.4-0.1-0.6-0.1c0,0-0.1,0-0.1,0    l-39,1.6l-8.1-4.7l-2.8-6.1l-0.9-51.1l0.9-7.8c0-0.1,0-0.2,0-0.4l-0.4-40.9l3.2-7.8l8.6-3.5l7.2-1.1l41.7,1.7c0,0,0.1,0,0.1,0    c0.1,0,0.2,0,0.3,0l12.5-1.2h25.2c0.1,0,0.2,0,0.3,0l13.1-1.4c1.4-0.1,2.5-1.2,2.7-2.6l0.5-3.9c0.2-1.4-0.6-2.7-1.9-3.1l-7.9-3    c-0.2-0.1-0.4-0.1-0.7-0.2l-9.7-1.4c-0.1,0-0.3,0-0.4,0c-0.1,0-0.2,0-0.3,0l-8.9,0.9l-8.5-0.9    C748.8,102.4,748.7,102.4,748.6,102.4L748.6,102.4z"></path>		</g>		<g>			<path class="st0" d="M951,353.8c0,0-0.1,0-0.1,0l-21.9-3c-0.1,0-0.3-0.1-0.4-0.1l-24.9-10.9c-0.1,0-0.2-0.1-0.2-0.1l-7.4-4.8    c-0.1,0-0.1-0.1-0.2-0.1l-19.2-16.6c-0.1-0.1-0.1-0.1-0.2-0.2l-12.7-15.7c0,0-0.1-0.1-0.1-0.1l-4.8-7.4c0,0,0-0.1-0.1-0.1    l-3.5-6.5c0-0.1-0.1-0.2-0.1-0.2l-8.3-25.8c0-0.1-0.1-0.2-0.1-0.4l-3-44.6c0-0.1,0-0.2,0-0.3l1.4-10.9c0-0.1,0-0.1,0-0.2l2.5-9.1    l0.9-7.3c0-0.1,0-0.1,0-0.2l2.6-9.2c0-0.1,0.1-0.2,0.1-0.2l3.9-8.3c0,0,0-0.1,0.1-0.1l9.7-15.7c0-0.1,0.1-0.1,0.1-0.1l10.1-12.7    c0-0.1,0.1-0.1,0.1-0.1l13.6-13.1c0,0,0.1-0.1,0.1-0.1l7.4-5.7c0.1-0.1,0.2-0.1,0.3-0.2l24-10.9c0.1,0,0.1,0,0.2-0.1l24.9-7.9    c0.1,0,0.2-0.1,0.4-0.1c0,0,21.5-1.4,21.5-1.4c0,0,0.1,0,0.1,0l22.4,2.1c0.1,0,0.2,0,0.2,0l9.6,2.5l8.2,0.9    c0.2,0,0.3,0.1,0.4,0.1l7.8,3.4l8.7,2.5c0.1,0,0.1,0,0.2,0.1l8.3,3.9c0.1,0,0.2,0.1,0.3,0.2l27.9,21.9c0.1,0.1,0.2,0.2,0.3,0.3    l10.9,14.8c0,0,0.1,0.1,0.1,0.1l8.8,14.8c0.1,0.1,0.1,0.2,0.1,0.3l5.7,19.1l3,7.8c0.1,0.1,0.1,0.3,0.1,0.5l0.4,8.2l1.3,7.8    c0,0.1,0,0.1,0,0.2l0.9,27.9c0,0.1,0,0.3,0,0.4l-7.9,35.5c0,0.1,0,0.2-0.1,0.3l-3.5,8.3c0,0.1-0.1,0.2-0.1,0.2l-4.8,7.4l-4.8,8.7    c0,0.1-0.1,0.1-0.1,0.2l-7.9,10.4c-0.1,0.1-0.1,0.1-0.2,0.2l-22.8,20.5c-0.1,0.1-0.2,0.2-0.3,0.2l-7.4,3.9    c-0.1,0-0.1,0.1-0.2,0.1l-16.9,6.4l-7.7,4.8c-0.2,0.1-0.4,0.2-0.6,0.2l-8.6,0.9l-7.7,2.9c-0.1,0.1-0.3,0.1-0.5,0.1l-8.5,0.4    c-0.3,0.2-0.6,0.3-1,0.3C982.1,355.2,951,353.8,951,353.8z M968.2,342.4l22-1.3l7.7-2.1c0,0,0.1,0,0.1,0l8.1-1.3l23.6-10l6.3-5.6    c0.1-0.1,0.1-0.1,0.2-0.2l7.2-4.3l6.8-6.8l5.2-6.4l4.3-6.4l5.7-7.3l6.4-13.8l3.4-9.5l3.4-16.8l0.9-20.3l-2.1-31.3l-2-8l-12.6-27    l-6.8-11.1l-12.9-11.1l-13.4-10l-24.2-10.7l-15-3l-9.1-0.4l-12.2-1.4l-22.1,1.3l-16,4.8c-0.1,0-0.1,0-0.2,0l-8.6,1.3l-7.1,2.9    l-14.3,9.5l-25.6,23l-4.2,7.5l-3,9.1c0,0.1-0.1,0.2-0.1,0.2l-4.3,8.1l-6.9,32.9l-0.4,25.6l0.9,8.1l3.9,17.4l6.1,17.2l4.7,5.5    c0,0.1,0.1,0.1,0.1,0.2l9.1,14.6l12.5,12l13.4,10.3l7.2,3.8l16.5,4.8l7.3,2.5L968.2,342.4z"></path>			<path class="st0" d="M967.8,104.6l22.4,2.1l9.7,2.6l8.3,0.9l7.9,3.5l8.8,2.6l8.3,3.9l27.9,21.9l10.9,14.8l8.8,14.8l5.7,19.2    l3,7.9l0.5,8.3l1.4,7.9l0.9,27.9l-7.9,35.5l-3.5,8.3l-4.8,7.4l-4.8,8.8l-7.9,10.4l-22.8,20.5l-7.4,3.9l-17.1,6.5l-7.9,4.8    l-8.8,0.9l-7.9,3l-9.2,0.5l-0.2,0v0.3l-31.1-1.4l-21.9-3l-24.9-10.9l-7.4-4.8L877.6,317l-12.7-15.7l-4.8-7.4l-3.5-6.5l-8.3-25.8    l-3-44.6l1.4-10.9l2.6-9.2l0.9-7.4l2.6-9.2l3.9-8.3l9.7-15.7l10.1-12.7l13.6-13.1l7.4-5.7l24-10.9l24.9-7.9L967.8,104.6     M968.2,343.9L968.2,343.9L968.2,343.9L968.2,343.9l22.3-1.4l7.9-2.1l8.3-1.4l24-10.1l6.5-5.7l7.4-4.4l6.9-6.9l5.3-6.5l4.4-6.5    l5.7-7.4l6.5-14l3.5-9.7l3.5-17.1l0.9-20.5l-2.1-31.6l-2.1-8.3l-12.7-27.2l-6.9-11.3l-13.1-11.3l-13.6-10.1l-24.5-10.9l-15.3-3    l-9.2-0.5l-12.2-1.4l-22.4,1.4l-16.2,4.8l-8.8,1.4l-7.4,3l-14.5,9.7l-25.8,23.3l-4.4,7.9l-3,9.2l-4.4,8.3l-6.9,33.2l-0.5,25.8    l0.9,8.3l3.9,17.5l6.2,17.5l4.8,5.7l9.2,14.8l12.7,12.2l13.6,10.4l7.4,3.9l16.6,4.8l7.4,2.6L968.2,343.9 M967.8,101.6    c-0.1,0-0.1,0-0.2,0l-21.4,1.4c-0.2,0-0.5,0.1-0.7,0.1l-24.9,7.9c-0.1,0-0.2,0.1-0.3,0.1l-24,10.9c-0.2,0.1-0.4,0.2-0.6,0.4    l-7.4,5.7c-0.1,0.1-0.2,0.1-0.2,0.2l-13.6,13.1c-0.1,0.1-0.2,0.2-0.3,0.3l-10.1,12.7c-0.1,0.1-0.1,0.2-0.2,0.3l-9.7,15.7    c-0.1,0.1-0.1,0.2-0.2,0.3L850,179c-0.1,0.2-0.1,0.3-0.2,0.5l-2.6,9.2c0,0.1-0.1,0.3-0.1,0.4l-0.9,7.2l-2.5,9    c0,0.1-0.1,0.3-0.1,0.4l-1.4,10.9c0,0.2,0,0.4,0,0.6l3,44.6c0,0.2,0.1,0.5,0.1,0.7l8.3,25.8c0.1,0.2,0.1,0.3,0.2,0.5l3.5,6.5    c0,0.1,0.1,0.2,0.1,0.2l4.8,7.4c0.1,0.1,0.1,0.2,0.2,0.2l12.7,15.7c0.1,0.1,0.2,0.3,0.4,0.4l19.2,16.6c0.1,0.1,0.2,0.2,0.3,0.2    l7.4,4.8c0.1,0.1,0.3,0.2,0.4,0.2l24.9,10.9c0.3,0.1,0.5,0.2,0.8,0.2l21.9,3c0.1,0,0.2,0,0.3,0l31.1,1.4c0,0,0.1,0,0.1,0    c0.5,0,1-0.1,1.4-0.4l8.1-0.4c0.3,0,0.6-0.1,0.9-0.2l7.5-2.9l8.4-0.9c0.4,0,0.9-0.2,1.3-0.4l7.6-4.7l16.8-6.4    c0.1,0,0.2-0.1,0.3-0.2l7.4-3.9c0.2-0.1,0.4-0.3,0.6-0.4l22.8-20.5c0.1-0.1,0.3-0.3,0.4-0.4l7.9-10.4c0.1-0.1,0.2-0.2,0.2-0.4    l4.8-8.7l4.8-7.3c0.1-0.2,0.2-0.3,0.3-0.5l3.5-8.3c0.1-0.2,0.1-0.3,0.2-0.5l7.9-35.5c0.1-0.2,0.1-0.5,0.1-0.7l-0.9-27.9    c0-0.1,0-0.3,0-0.4l-1.3-7.7l-0.4-8.1c0-0.3-0.1-0.6-0.2-0.9l-3-7.7l-5.7-19.1c-0.1-0.2-0.2-0.5-0.3-0.7l-8.8-14.8    c-0.1-0.1-0.1-0.2-0.2-0.2l-10.9-14.8c-0.2-0.2-0.4-0.4-0.6-0.6l-27.9-21.9c-0.2-0.1-0.4-0.3-0.6-0.4l-8.3-3.9    c-0.1-0.1-0.3-0.1-0.4-0.2l-8.6-2.5l-7.7-3.4c-0.3-0.1-0.6-0.2-0.9-0.2l-8.1-0.9l-9.4-2.5c-0.2,0-0.3-0.1-0.5-0.1l-22.4-2.1    C968,101.6,967.9,101.6,967.8,101.6L967.8,101.6z M947.6,118.9l21.8-1.3l12,1.3c0.1,0,0.1,0,0.2,0l9,0.4l14.7,2.9l23.9,10.6    l13.2,9.9l12.7,11l6.6,10.8l12.5,26.8l2,7.8l2.1,31.1l-0.9,20.1l-3.4,16.6l-3.4,9.3l-6.3,13.6l-5.5,7.1c0,0.1-0.1,0.1-0.1,0.2    l-4.3,6.4l-5.1,6.3l-6.6,6.6l-7.1,4.2c-0.2,0.1-0.3,0.2-0.5,0.3l-6.1,5.4l-23.2,9.8l-8,1.3c-0.1,0-0.2,0-0.3,0.1l-7.6,2    l-21.7,1.3l-29.6-3.4l-7.1-2.5c0,0-0.1,0-0.1,0l-16.3-4.7l-6.9-3.7L895,316.4l-12.3-11.9l-9-14.5c-0.1-0.1-0.2-0.2-0.3-0.3    l-4.5-5.3l-6-16.8l-3.9-17.2l-0.9-8l0.4-25.4l6.8-32.5l4.2-7.9c0.1-0.1,0.1-0.3,0.2-0.5l2.9-8.9l4-7.2l25.3-22.8l14.1-9.4    l6.8-2.8l8.4-1.3c0.1,0,0.3-0.1,0.4-0.1L947.6,118.9L947.6,118.9z"></path>		</g>		<g>			<path class="st0" d="M1345.9,354.1c-0.4,0-0.7-0.1-1-0.4l-5.3-0.4c-0.3,0-0.7-0.2-0.9-0.4l-7.9-7.4c-0.1-0.1-0.2-0.3-0.3-0.4    l-7.3-15.1l-5.6-6.8c0-0.1-0.1-0.1-0.1-0.2l-30.5-50.6l-7.4-6.5l-12.1-2.9l-71.8,0.9l-7.5,2.3l-3.9,7l-0.5,55.7    c0,0.1,0,0.1,0,0.2l-3,21.4c-0.1,0.7-0.7,1.3-1.5,1.3c-0.1,0-0.1,0-0.2,0l-4.4-0.5c-0.6-0.1-1.2-0.5-1.3-1.1l-1.8-7.4    c0-0.1,0-0.1,0-0.2l-0.9-9.7c0,0,0-0.1,0-0.1v-61.6c0,0,0-0.1,0-0.1l0.9-9.1l-0.9-26.2c0-0.1,0-0.1,0-0.2l0.9-8.7l0.5-107.6    c0-0.2,0.1-0.5,0.2-0.7l3.9-7.9c0.1-0.3,0.4-0.5,0.7-0.7l8.8-4.4c0.2-0.1,0.4-0.2,0.7-0.2c0,0,69.5,0.9,69.5,0.9l13.5-1.8    c0.1,0,0.1,0,0.2,0c0.1,0,0.1,0,0.2,0l12.7,1.4c0.1,0,0.1,0,0.2,0l18.4,4.8c0.1,0,0.2,0.1,0.3,0.1l7.4,3.9l7.3,3.4    c0.1,0,0.2,0.1,0.3,0.2l7.4,5.7c0,0,0.1,0.1,0.1,0.1l5.7,5.7l6.6,7.5c0.1,0.1,0.2,0.2,0.2,0.3l7.4,14.8c0,0,0,0.1,0,0.1l3,7.4    c0,0.1,0.1,0.2,0.1,0.3l1.8,10.1c0,0.1,0,0.1,0,0.2l0.9,12.7c0,0.1,0,0.1,0,0.2l-1.4,20.1c0,0.2,0,0.3-0.1,0.4l-6.5,16.6    c0,0.1-0.1,0.2-0.1,0.3l-9.2,14c0,0.1-0.1,0.1-0.2,0.2l-5.7,6.2c0,0.1-0.1,0.1-0.2,0.1l-6.5,5.3c-0.1,0.1-0.2,0.1-0.3,0.2    l-6.8,3.4l-13.3,9.8l0.8,7.6l23.1,38.7c0,0,0.1,0.1,0.1,0.2l3.9,8.7l13.1,21.8l4.3,6.1c0.1,0.1,0.2,0.3,0.2,0.4l2.4,7.6    c0.2,0.2,0.3,0.5,0.3,0.8v0.3c0,0.7-0.5,1.4-1.3,1.5C1346,354.1,1345.9,354.1,1345.9,354.1z M1248.3,250.4l8.2-1.3    c0.1,0,0.2,0,0.2,0c0,0,0.1,0,0.1,0l12.5,0.9l22.1-2.5l8.5-2.9l7.2-3.8l8.1-6l5.1-6l10.7-14.6l5.6-18l0.9-13.3l-0.4-11.9    l-6.1-17.6l-4.2-7.1l-12.5-12.9l-6.7-4.7l-8.1-3.8l-8.6-2.5l-8.2-3l-14.2-1.3c0,0-12.2,0.5-12.2,0.5c-0.1,0-0.2,0-0.2,0l-8.5-1.3    l-8.1,1.3c-0.1,0-0.2,0-0.2,0h-35c-0.1,0-0.1,0-0.2,0l-8.7-1.3l-7.8,3.9l-2.8,8.9l-1.4,50l0.9,9.1c0,0,0,0.1,0,0.1l0.5,45.7    l3.7,12.3l6.9,3.1c0,0,26.4-0.4,26.4-0.4c0.1,0,0.2,0,0.3,0l7.3,1.3L1248.3,250.4z"></path>			<path class="st0" d="M1269.3,106.1l12.7,1.4l18.4,4.8l7.4,3.9l7.4,3.5l7.4,5.7l5.7,5.7l6.5,7.4l7.4,14.8l3,7.4l1.8,10.1l0.9,12.7    l-1.4,20.1l-6.5,16.6l-9.2,14l-5.7,6.2l-6.5,5.3l-6.9,3.5l-14,10.4l0.9,8.8l23.3,39l3.9,8.8l13.1,21.9l4.4,6.2l2.5,8l-6.1-0.4    l-7.9-7.4l-7.4-15.3l-5.7-6.9l-30.7-50.8l-7.9-6.9l-12.7-3l-72.2,0.9l-8.3,2.6l-4.4,7.9l-0.5,56l-3,21.4l-4.4-0.5l-1.8-7.4    l-0.9-9.7v-61.6l0.9-9.2l-0.9-26.3l0.9-8.8l0.5-107.7l3.9-7.9l8.8-4.4l69.6,0.9L1269.3,106.1 M1204.2,116.7l-9.2-1.4l-8.8,4.4    l-3,9.7l-1.4,50.3l0.9,9.2l0.5,45.9l3.9,13.1l7.9,3.5l26.7-0.5l7.4,1.4l0.2,0l19.2-0.5l8.3-1.4l12.7,0.9l22.4-2.6l8.8-3l7.4-3.9    l8.3-6.2l5.3-6.2l10.9-14.8l5.7-18.4l0.9-13.6l-0.5-12.2l-6.2-18l-4.4-7.4l-12.7-13.1l-6.9-4.8l-8.3-3.9l-8.8-2.6l-8.3-3    l-14.5-1.4l-12.2,0.5l-8.8-1.4l-8.3,1.4H1204.2 M1345.8,352.3L1345.8,352.3l0.1,0.3L1345.8,352.3 M1345.9,352.6L1345.9,352.6    L1345.9,352.6L1345.9,352.6 M1269.3,103.1c-0.1,0-0.3,0-0.4,0l-13.4,1.8l-69.4-0.9c0,0,0,0,0,0c-0.5,0-0.9,0.1-1.3,0.3l-8.8,4.4    c-0.6,0.3-1.1,0.8-1.3,1.3l-3.9,7.9c-0.2,0.4-0.3,0.9-0.3,1.3l-0.5,107.5l-0.9,8.6c0,0.1,0,0.3,0,0.4l0.9,26.1l-0.9,9    c0,0.1,0,0.2,0,0.3v61.6c0,0.1,0,0.2,0,0.3l0.9,9.7c0,0.1,0,0.3,0.1,0.4l1.8,7.4c0.3,1.2,1.3,2.1,2.6,2.3l4.4,0.5    c0.1,0,0.2,0,0.3,0c1.5,0,2.8-1.1,3-2.6l3-21.4c0-0.1,0-0.3,0-0.4l0.4-55.3l3.4-6.1l6.7-2.1l71.4-0.9l11.6,2.8l6.9,6.1l30.4,50.4    c0.1,0.1,0.2,0.2,0.3,0.4l5.5,6.7l7.2,14.9c0.2,0.3,0.4,0.6,0.6,0.9l7.9,7.4c0.5,0.5,1.2,0.8,1.8,0.8l4.9,0.4    c0.4,0.3,1,0.4,1.5,0.4c0.1,0,0.3,0,0.5,0c1.5-0.2,2.6-1.5,2.6-3v-0.3c0-0.6-0.2-1.1-0.4-1.6l-2.3-7.3c-0.1-0.3-0.2-0.6-0.4-0.8    l-4.3-6.1l-13-21.7l-3.9-8.6c0-0.1-0.1-0.2-0.2-0.3l-22.9-38.4l-0.7-6.4l12.5-9.2l6.7-3.4c0.2-0.1,0.4-0.2,0.6-0.4l6.5-5.3    c0.1-0.1,0.2-0.2,0.3-0.3l5.7-6.2c0.1-0.1,0.2-0.3,0.3-0.4l9.2-14c0.1-0.2,0.2-0.4,0.3-0.6l6.5-16.6c0.1-0.3,0.2-0.6,0.2-0.9    l1.4-20.1c0-0.1,0-0.3,0-0.4l-0.9-12.7c0-0.1,0-0.2,0-0.3l-1.8-10.1c0-0.2-0.1-0.4-0.2-0.6l-3-7.4c0-0.1-0.1-0.1-0.1-0.2    l-7.4-14.8c-0.1-0.2-0.3-0.4-0.4-0.6l-6.5-7.4c0,0-0.1-0.1-0.1-0.1l-5.7-5.7c-0.1-0.1-0.2-0.2-0.3-0.2l-7.4-5.7    c-0.2-0.1-0.4-0.3-0.6-0.3l-7.3-3.4l-7.3-3.9c-0.2-0.1-0.4-0.2-0.6-0.3l-18.4-4.8c-0.1,0-0.3-0.1-0.4-0.1l-12.7-1.4    C1269.5,103.1,1269.4,103.1,1269.3,103.1L1269.3,103.1z M1204.2,119.7h35c0.2,0,0.3,0,0.5,0l7.8-1.3l8.3,1.3c0.2,0,0.3,0,0.5,0    c0,0,0.1,0,0.1,0l12-0.4l13.9,1.3l7.9,2.9c0.1,0,0.1,0,0.2,0.1l8.5,2.5l7.9,3.7l6.5,4.5l12.2,12.7l4,6.8l5.9,17.3l0.4,11.6    l-0.9,13.1l-5.5,17.6l-10.5,14.3l-5,5.9l-7.9,5.9l-7,3.7l-8.2,2.8l-21.8,2.5l-12.4-0.9c-0.1,0-0.1,0-0.2,0c-0.2,0-0.3,0-0.5,0    l-8.1,1.3l-18.8,0.4l-7.1-1.3c-0.2,0-0.4,0-0.5,0c0,0,0,0-0.1,0l-26.1,0.4l-6-2.6l-3.4-11.4l-0.4-45.5c0-0.1,0-0.2,0-0.3l-0.9-9    l1.3-49.7l2.5-8.1l6.8-3.4l8.3,1.2C1203.9,119.7,1204,119.7,1204.2,119.7L1204.2,119.7z"></path>		</g>		<g>			<path class="st0" d="M1693.7,354.1c-0.4,0-0.7-0.1-1-0.4l-5.3-0.4c-0.3,0-0.7-0.2-0.9-0.4l-7.9-7.4c-0.1-0.1-0.2-0.3-0.3-0.4    L1671,330l-5.6-6.8c0-0.1-0.1-0.1-0.1-0.2l-30.5-50.6l-7.4-6.5l-12.1-2.9l-71.8,0.9l-7.5,2.3l-3.9,7l-0.5,55.7c0,0.1,0,0.1,0,0.2    l-3,21.4c-0.1,0.7-0.7,1.3-1.5,1.3c-0.1,0-0.1,0-0.2,0l-4.4-0.5c-0.6-0.1-1.2-0.5-1.3-1.1l-1.8-7.4c0-0.1,0-0.1,0-0.2l-0.9-9.7    c0,0,0-0.1,0-0.1v-61.6c0,0,0-0.1,0-0.1l0.9-9.1l-0.9-26.2c0-0.1,0-0.1,0-0.2l0.9-8.7l0.5-107.6c0-0.2,0.1-0.5,0.2-0.7l3.9-7.9    c0.1-0.3,0.4-0.5,0.7-0.7l8.8-4.4c0.2-0.1,0.4-0.2,0.7-0.2c0,0,69.5,0.9,69.5,0.9l13.5-1.8c0.1,0,0.1,0,0.2,0c0.1,0,0.1,0,0.2,0    l12.7,1.4c0.1,0,0.1,0,0.2,0l18.4,4.8c0.1,0,0.2,0.1,0.3,0.1l7.4,3.9l7.3,3.4c0.1,0,0.2,0.1,0.3,0.2l7.4,5.7c0,0,0.1,0.1,0.1,0.1    l5.7,5.7l6.6,7.5c0.1,0.1,0.2,0.2,0.2,0.3l7.4,14.8c0,0,0,0.1,0,0.1l3,7.4c0,0.1,0.1,0.2,0.1,0.3l1.8,10.1c0,0.1,0,0.1,0,0.2    l0.9,12.7c0,0.1,0,0.1,0,0.2l-1.4,20.1c0,0.2,0,0.3-0.1,0.4l-6.5,16.6c0,0.1-0.1,0.2-0.1,0.3l-9.2,14c0,0.1-0.1,0.1-0.2,0.2    l-5.7,6.2c0,0.1-0.1,0.1-0.2,0.1l-6.5,5.3c-0.1,0.1-0.2,0.1-0.3,0.2l-6.8,3.4l-13.3,9.8l0.8,7.6l23.1,38.7c0,0.1,0.1,0.1,0.1,0.2    l3.9,8.7l13.1,21.8l4.3,6.1c0.1,0.1,0.2,0.3,0.2,0.4l2.4,7.6c0.2,0.2,0.3,0.5,0.3,0.8v0.3c0,0.7-0.5,1.4-1.3,1.5    C1693.9,354.1,1693.8,354.1,1693.7,354.1z M1596.2,250.4l8.2-1.3c0.1,0,0.2,0,0.2,0c0,0,0.1,0,0.1,0l12.5,0.9l22.1-2.5l8.5-2.9    l7.2-3.8l8.1-6l5.1-6l10.7-14.6l5.6-18l0.9-13.3l-0.4-11.9l-6.1-17.6l-4.2-7.1l-12.5-12.9l-6.7-4.7l-8.1-3.8l-8.6-2.5l-8.2-3    l-14.2-1.3c0,0-12.2,0.5-12.2,0.5c-0.1,0-0.2,0-0.2,0l-8.5-1.3l-8.1,1.3c-0.1,0-0.2,0-0.2,0h-35c-0.1,0-0.1,0-0.2,0l-8.7-1.3    l-7.8,3.9l-2.8,8.9l-1.4,50l0.9,9.1c0,0,0,0.1,0,0.1l0.5,45.7l3.7,12.3l6.9,3.1c0,0,26.4-0.4,26.4-0.4c0.1,0,0.2,0,0.3,0l7.3,1.3    L1596.2,250.4z"></path>			<path class="st0" d="M1617.2,106.1l12.7,1.4l18.4,4.8l7.4,3.9l7.4,3.5l7.4,5.7l5.7,5.7l6.5,7.4l7.4,14.8l3,7.4l1.8,10.1l0.9,12.7    l-1.4,20.1l-6.5,16.6l-9.2,14l-5.7,6.2l-6.5,5.3l-6.9,3.5l-14,10.4l0.9,8.8l23.3,39l3.9,8.8l13.1,21.9l4.4,6.2l2.5,8l-6.1-0.4    l-7.9-7.4l-7.4-15.3l-5.7-6.9l-30.7-50.8l-7.9-6.9l-12.7-3l-72.2,0.9l-8.3,2.6l-4.4,7.9l-0.5,56l-3,21.4l-4.4-0.5l-1.8-7.4    l-0.9-9.7v-61.6l0.9-9.2l-0.9-26.3l0.9-8.8l0.5-107.7l3.9-7.9l8.8-4.4l69.6,0.9L1617.2,106.1 M1552,116.7l-9.2-1.4l-8.8,4.4    l-3,9.7l-1.4,50.3l0.9,9.2l0.5,45.9l3.9,13.1l7.9,3.5l26.7-0.5l7.4,1.4l0.2,0l19.2-0.5l8.3-1.4l12.7,0.9l22.4-2.6l8.8-3l7.4-3.9    l8.3-6.2l5.3-6.2l10.9-14.8l5.7-18.4l0.9-13.6l-0.5-12.2l-6.2-18l-4.4-7.4l-12.7-13.1l-6.9-4.8l-8.3-3.9l-8.8-2.6l-8.3-3    l-14.5-1.4l-12.2,0.5l-8.8-1.4l-8.3,1.4H1552 M1693.6,352.3L1693.6,352.3l0.1,0.3L1693.6,352.3 M1693.7,352.6L1693.7,352.6    L1693.7,352.6L1693.7,352.6 M1617.2,103.1c-0.1,0-0.3,0-0.4,0l-13.4,1.8L1534,104c0,0,0,0,0,0c-0.5,0-0.9,0.1-1.3,0.3l-8.8,4.4    c-0.6,0.3-1.1,0.8-1.3,1.3l-3.9,7.9c-0.2,0.4-0.3,0.9-0.3,1.3l-0.5,107.5l-0.9,8.6c0,0.1,0,0.3,0,0.4l0.9,26.1l-0.9,9    c0,0.1,0,0.2,0,0.3v61.6c0,0.1,0,0.2,0,0.3l0.9,9.7c0,0.1,0,0.3,0.1,0.4l1.8,7.4c0.3,1.2,1.3,2.1,2.6,2.3l4.4,0.5    c0.1,0,0.2,0,0.3,0c1.5,0,2.8-1.1,3-2.6l3-21.4c0-0.1,0-0.3,0-0.4l0.4-55.3l3.4-6.1l6.7-2.1l71.4-0.9l11.6,2.8l6.9,6.1l30.4,50.4    c0.1,0.1,0.2,0.2,0.3,0.4l5.5,6.7l7.2,14.9c0.2,0.3,0.4,0.6,0.6,0.9l7.9,7.4c0.5,0.5,1.2,0.8,1.8,0.8l4.9,0.4    c0.4,0.3,1,0.4,1.5,0.4c0.1,0,0.3,0,0.5,0c1.5-0.2,2.6-1.5,2.6-3v-0.3c0-0.6-0.2-1.1-0.4-1.6l-2.3-7.3c-0.1-0.3-0.2-0.6-0.4-0.8    l-4.3-6.1l-13-21.7l-3.9-8.6c0-0.1-0.1-0.2-0.2-0.3l-22.9-38.4l-0.7-6.4l12.5-9.2l6.7-3.4c0.2-0.1,0.4-0.2,0.6-0.4l6.5-5.3    c0.1-0.1,0.2-0.2,0.3-0.3l5.7-6.2c0.1-0.1,0.2-0.3,0.3-0.4l9.2-14c0.1-0.2,0.2-0.4,0.3-0.6l6.5-16.6c0.1-0.3,0.2-0.6,0.2-0.9    l1.4-20.1c0-0.1,0-0.3,0-0.4l-0.9-12.7c0-0.1,0-0.2,0-0.3l-1.8-10.1c0-0.2-0.1-0.4-0.2-0.6l-3-7.4c0-0.1-0.1-0.1-0.1-0.2    l-7.4-14.8c-0.1-0.2-0.3-0.4-0.4-0.6l-6.5-7.4c0,0-0.1-0.1-0.1-0.1l-5.7-5.7c-0.1-0.1-0.2-0.2-0.3-0.2l-7.4-5.7    c-0.2-0.1-0.4-0.3-0.6-0.3l-7.3-3.4l-7.3-3.9c-0.2-0.1-0.4-0.2-0.6-0.3l-18.4-4.8c-0.1,0-0.3-0.1-0.4-0.1l-12.7-1.4    C1617.4,103.1,1617.3,103.1,1617.2,103.1L1617.2,103.1z M1552,119.7h35c0.2,0,0.3,0,0.5,0l7.8-1.3l8.3,1.3c0.2,0,0.3,0,0.5,0    c0,0,0.1,0,0.1,0l12-0.4l13.9,1.3l7.9,2.9c0.1,0,0.1,0,0.2,0.1l8.5,2.5l7.9,3.7l6.5,4.5l12.2,12.7l4,6.8l5.9,17.3l0.4,11.6    l-0.9,13.1l-5.5,17.6l-10.5,14.3l-5,5.9l-7.9,5.9l-7,3.7l-8.2,2.8l-21.8,2.5l-12.4-0.9c-0.1,0-0.1,0-0.2,0c-0.2,0-0.3,0-0.5,0    l-8.1,1.3l-18.8,0.4l-7.1-1.3c-0.2,0-0.4,0-0.5,0c0,0,0,0-0.1,0l-26.1,0.4l-6-2.6l-3.4-11.4l-0.4-45.5c0-0.1,0-0.2,0-0.3l-0.9-9    l1.3-49.7l2.5-8.1l6.8-3.4l8.3,1.2C1551.8,119.7,1551.9,119.7,1552,119.7L1552,119.7z"></path>		</g>		<g>			<path class="st0" d="M1885.9,354.4l-31.9-1.7l-7.7,1.3c-0.1,0-0.2,0-0.3,0h-9.7c-0.1,0-0.1,0-0.2,0l-8.7-0.9c0,0-27,0.5-27,0.5    c-0.3,0-0.6-0.1-0.8-0.2l-8.8-5.7c-0.3-0.2-0.5-0.5-0.6-0.8l-3.9-12.2c0-0.1-0.1-0.3-0.1-0.5l-0.5-215.2c0-0.2,0.1-0.5,0.2-0.7    l4.4-8.8c0.1-0.3,0.4-0.5,0.6-0.6l8.8-4.8c0.2-0.1,0.5-0.2,0.7-0.2c0,0,17,0.5,17,0.5l9.1-0.9c0,0,0.1,0,0.1,0c0.1,0,0.1,0,0.2,0    l8.1,0.9l8.6-0.9c0.1,0,0.1,0,0.2,0s0.1,0,0.2,0l17.4,1.8c0,0,38.7-0.9,38.8-0.9c0.1,0,0.2,0,0.2,0l13.6,2.1    c0.6,0.1,1.1,0.6,1.3,1.2l0.9,5.7c0.1,0.4,0,0.8-0.3,1.2c-0.3,0.3-0.6,0.5-1,0.6l-9.2,0.9c0,0-0.1,0-0.1,0H1853l-8.2,1.2    c-0.1,0-0.1,0-0.2,0h-30.3l-12.3,3.8l-3.1,6.9v60.9c0,0.1,0,0.1,0,0.2l-0.9,7.7l1.2,8l2.9,8.1l7.9,4.3l8.8-0.9c0,0,0.1,0,0.1,0    c0,0,21.2,1.4,21.2,1.4l11.8-1.8c0.1,0,0.2,0,0.2,0c0,0,0.1,0,0.1,0l9.4,0.9c0,0,7.9-0.4,8-0.4c0.1,0,0.2,0,0.3,0l8.2,1.8h8.1    l10.4-0.9c0,0,0.1,0,0.1,0c0.2,0,0.3,0,0.5,0.1l8.3,3c0.6,0.2,1,0.9,1,1.5l-0.5,5.3c-0.1,0.7-0.5,1.2-1.2,1.3l-13.4,2.7    c-0.1,0-0.2,0-0.3,0c0,0-0.1,0-0.1,0l-21-1.3l-7.7,1.3c-0.1,0-0.2,0-0.3,0c0,0-27.1-0.5-27.1-0.5c0,0-0.1,0-0.1,0l-7.7-0.9    l-16.6,0.4l-7.3,4l-4,6.8l-0.7,8.3l0.7,13.5c0,0,0,0.1,0,0.1l-0.8,61.8l4.5,11.8l12.1,5.3l12.7-1.3c0.1,0,0.1,0,0.2,0    c0,0,0.1,0,0.1,0l17.4,1.3l8.2-0.9c0.1,0,0.1,0,0.2,0c0,0,17.9,0.9,17.9,0.9l9.1-1.3c0.1,0,0.1,0,0.2,0c0,0,0.1,0,0.1,0l9.1,0.9    c0,0,9.9-0.5,9.9-0.5c0.1,0,0.1,0,0.2,0l17.5,1.8c0.8,0.1,1.3,0.7,1.3,1.5v5.1c0,0.6-0.4,1.2-0.9,1.4l-8.8,3.5    c-0.2,0.1-0.4,0.1-0.6,0.1H1885.9z"></path>			<path class="st0" d="M1843.9,104.9l17.5,1.8l38.8-0.9l13.6,2.1l0.9,5.7l-9.2,0.9h-52.6l-8.3,1.2h-30.5l-13.1,4.1l-3.5,7.9v61.2    l-0.9,7.9l1.2,8.3l3.2,8.8l8.8,4.8l9.2-0.9l21.3,1.4l11.9-1.8l9.5,0.9l8-0.5l8.3,1.8h8.3l10.4-0.9l8.3,3l-0.5,5.3l-13.4,2.7    l-21.1-1.4l-7.9,1.4l-27-0.5l-7.9-0.9l-17.1,0.5l-8,4.4l-4.4,7.4l-0.8,8.8l0.8,13.6L1797,325l4.8,12.7l13,5.7l13.1-1.4l17.5,1.4    l8.3-0.9l18,0.9l9.2-1.4l9.2,0.9l10-0.5l17.5,1.8v5.1l-8.8,3.5h-23.1l-32-1.7l-7.9,1.4h-9.7l-8.8-0.9l-27,0.5l-8.8-5.7l-3.9-12.2    l-0.5-215.2l4.4-8.8l8.8-4.8l17.1,0.5l9.2-0.9l8.3,0.9L1843.9,104.9 M1843.9,101.9c-0.1,0-0.2,0-0.3,0l-8.4,0.9l-8-0.9    c-0.1,0-0.2,0-0.3,0c-0.1,0-0.2,0-0.3,0l-9,0.9l-16.9-0.4c0,0-0.1,0-0.1,0c-0.5,0-1,0.1-1.4,0.4l-8.8,4.8c-0.5,0.3-1,0.7-1.2,1.3    l-4.4,8.8c-0.2,0.4-0.3,0.9-0.3,1.3l0.5,215.2c0,0.3,0,0.6,0.1,0.9l3.9,12.2c0.2,0.7,0.6,1.2,1.2,1.6l8.8,5.7    c0.5,0.3,1.1,0.5,1.6,0.5c0,0,0,0,0.1,0l26.9-0.5l8.6,0.9c0.1,0,0.2,0,0.3,0h9.7c0.2,0,0.3,0,0.5,0l7.5-1.3l31.7,1.6    c0.1,0,0.1,0,0.2,0h23.1c0.4,0,0.8-0.1,1.1-0.2l8.8-3.5c1.1-0.5,1.9-1.6,1.9-2.8v-5.1c0-1.5-1.2-2.8-2.7-3l-17.5-1.8    c-0.1,0-0.2,0-0.3,0c0,0-0.1,0-0.1,0l-9.8,0.4l-9-0.9c-0.1,0-0.2,0-0.3,0c-0.1,0-0.3,0-0.4,0l-8.9,1.3l-17.7-0.9    c-0.1,0-0.1,0-0.2,0c-0.1,0-0.2,0-0.3,0l-8,0.9l-17.2-1.3c-0.1,0-0.2,0-0.2,0c-0.1,0-0.2,0-0.3,0l-12.3,1.3l-11.1-4.9l-4.2-11    l0.7-61.5c0-0.1,0-0.1,0-0.2l-0.7-13.4l0.7-7.9l3.6-6.1l6.6-3.6l16.1-0.4l7.6,0.9c0.1,0,0.2,0,0.3,0l27,0.5c0,0,0,0,0.1,0    c0.2,0,0.3,0,0.5,0l7.5-1.3l20.8,1.3c0.1,0,0.1,0,0.2,0c0.2,0,0.4,0,0.6-0.1l13.4-2.7c1.3-0.3,2.3-1.4,2.4-2.7l0.5-5.3    c0.1-1.4-0.7-2.6-2-3.1l-8.3-3c-0.3-0.1-0.7-0.2-1-0.2c-0.1,0-0.2,0-0.3,0l-10.3,0.9h-7.9l-8-1.7c-0.2,0-0.4-0.1-0.6-0.1    c-0.1,0-0.1,0-0.2,0l-7.8,0.4l-9.3-0.9c-0.1,0-0.2,0-0.3,0c-0.2,0-0.3,0-0.5,0l-11.6,1.8l-21-1.3c-0.1,0-0.1,0-0.2,0    c-0.1,0-0.2,0-0.3,0l-8.3,0.8l-7-3.8l-2.7-7.4l-1.1-7.6l0.9-7.5c0-0.1,0-0.2,0-0.3v-60.5l2.7-6l11.4-3.5h30.1c0.1,0,0.3,0,0.4,0    l8.1-1.2h52.3c0.1,0,0.2,0,0.3,0l9.2-0.9c0.8-0.1,1.6-0.5,2.1-1.2c0.5-0.7,0.7-1.5,0.6-2.3l-0.9-5.7c-0.2-1.3-1.2-2.3-2.5-2.5    l-13.6-2.1c-0.2,0-0.3,0-0.5,0c0,0,0,0-0.1,0l-38.6,0.9l-17.3-1.8C1844.1,101.9,1844,101.9,1843.9,101.9L1843.9,101.9z"></path>		</g>		<g>			<path class="st0" d="M2004,352.3c-0.7,0-1.3-0.5-1.5-1.2l-1.8-9.2c0-0.1,0-0.1,0-0.2l-0.5-9.2c0-0.1,0-0.1,0-0.2l0.4-7.8    l-0.4-9.6c0,0,0-0.1,0-0.1l0.4-8.5l-0.9-7.9c0-0.1,0-0.1,0-0.2l1.4-86.9l-1.3-9.1c0-0.1,0-0.2,0-0.3l0.9-19.1l-0.9-7    c0-0.1,0-0.2,0-0.2l0.9-27.5c0-0.1,0-0.2,0-0.3l1.8-8.3c0.1-0.6,0.6-1,1.1-1.1l7.4-1.8c0.1,0,0.2,0,0.4,0c0.3,0,0.7,0.1,0.9,0.3    l7.9,6.2c0.1,0.1,0.1,0.1,0.2,0.2l11.7,13.1l7,6c0,0,0.1,0.1,0.1,0.1l18.7,18.8l5.7,4.3c0,0,0.1,0.1,0.1,0.1l13.6,13.1    c0,0,0.1,0.1,0.1,0.1l11.3,12.9l50.2,49.4l13.5,10.8c0.1,0.1,0.2,0.2,0.3,0.3l5.1,7.1l7.1,4.2c0.1,0.1,0.2,0.1,0.3,0.2l11.5,11.7    l4.8,1.6l2.1-3.1l1.3-62l-1.3-9.1c0-0.1,0-0.1,0-0.2l0.5-106.3c0-0.1,0-0.3,0.1-0.4l2.6-8.8c0.2-0.5,0.6-1,1.2-1.1l5.3-0.9    c0.1,0,0.2,0,0.3,0c0.7,0,1.3,0.5,1.5,1.1l2.3,9.2c0,0.2,0.1,0.3,0,0.5l-0.9,8.6l0.9,18.3c0,0.1,0,0.2,0,0.2l-0.9,7.7l1.3,17.8    c0,0.1,0,0.2,0,0.3l-1.3,9.5l1.3,17.2c0,0.1,0,0.3,0,0.4l-1.3,7.4l0.9,52.3c0,0,0,0.1,0,0.1l-0.4,8.7l0.5,27.1c0,0.1,0,0.1,0,0.2    l-0.9,8.2l0.4,8.6c0,0.1,0,0.2,0,0.3l-1.4,8.8c-0.1,0.7-0.6,1.2-1.3,1.3l-8.3,0.9c-0.1,0-0.1,0-0.2,0c-0.4,0-0.7-0.1-1-0.4    l-13.6-12.3l-6.5-5.1c-0.1,0-0.1-0.1-0.2-0.2l-12.2-13.1l-25.3-22.8c-0.1,0-0.1-0.1-0.1-0.2l-6.1-7.3l-6.4-5.2    c0,0-0.1-0.1-0.1-0.1l-37.3-38.5l-19.6-17c-0.1-0.1-0.1-0.1-0.2-0.2l-6.1-7.3l-21.6-21.3l-9.9-7.2l-4.6-2l-1.5,4l0.5,35.2    c0,0.1,0,0.1,0,0.2l-0.9,8.1l0.9,8.1c0,0.1,0,0.1,0,0.2l-1.4,89.6l1.3,8.9c0,0.1,0,0.2,0,0.3l-0.9,26.7c0,0.1,0,0.2-0.1,0.4    l-2.6,8.8c-0.2,0.6-0.7,1-1.3,1.1l-4.8,0.5C2004.1,352.3,2004,352.3,2004,352.3z"></path>			<path class="st0" d="M2193.4,107l2.3,9.2l-0.9,8.8l0.9,18.4l-0.9,7.9l1.4,18l-1.4,9.7l1.4,17.4l-1.4,7.6l0.9,52.4l-0.5,8.8    l0.5,27.2l-0.9,8.3l0.5,8.8l-1.4,8.8l-8.3,0.9l-13.6-12.4l-6.5-5.1l-12.2-13.1l-25.4-22.8l-6.2-7.4l-6.5-5.3l-37.3-38.5    l-19.6-17.1l-6.2-7.4l-21.8-21.4l-10.1-7.4l-6.2-2.7l-2.1,5.7l0.5,35.5l-0.9,8.3l0.9,8.3l-1.4,89.7l1.4,9.1l-0.9,26.7l-2.6,8.8    l-4.8,0.5l-1.8-9.2l-0.5-9.2l0.5-7.9l-0.5-9.7l0.5-8.6l-0.9-8l1.4-87l-1.4-9.2l0.9-19.2l-0.9-7.1l0.9-27.5l1.8-8.3l7.4-1.8    l7.9,6.2l11.8,13.1l7.1,6l18.7,18.9l5.7,4.4l13.6,13.1l11.3,13l50.3,49.5l13.6,10.9l5.3,7.4l7.4,4.4l11.8,11.9l6.2,2.1l3-4.4    l1.4-62.5l-1.4-9.2l0.5-106.3l2.6-8.8L2193.4,107 M2193.4,104c-0.2,0-0.3,0-0.5,0l-5.3,0.9c-1.1,0.2-2,1-2.4,2.1l-2.6,8.8    c-0.1,0.3-0.1,0.5-0.1,0.8l-0.5,106.3c0,0.2,0,0.3,0,0.5l1.3,9l-1.3,61.4l-1.2,1.8l-3.4-1.2l-11.3-11.4c-0.2-0.2-0.4-0.3-0.6-0.5    l-6.9-4.1l-4.9-6.9c-0.2-0.2-0.4-0.4-0.6-0.6l-13.5-10.8l-50.1-49.4l-11.3-12.9c-0.1-0.1-0.1-0.1-0.2-0.2l-13.6-13.1    c-0.1-0.1-0.2-0.2-0.3-0.2l-5.6-4.3l-18.6-18.7c-0.1-0.1-0.1-0.1-0.2-0.2l-6.9-5.9l-11.6-13c-0.1-0.1-0.2-0.2-0.4-0.4l-7.9-6.2    c-0.5-0.4-1.2-0.6-1.9-0.6c-0.2,0-0.5,0-0.7,0.1l-7.4,1.8c-1.1,0.3-2,1.2-2.2,2.3l-1.8,8.3c0,0.2-0.1,0.4-0.1,0.5l-0.9,27.5    c0,0.2,0,0.3,0,0.5l0.9,6.8l-0.9,18.9c0,0.2,0,0.4,0,0.6l1.3,9l-1.4,86.8c0,0.1,0,0.3,0,0.4l0.9,7.8l-0.4,8.4c0,0.1,0,0.2,0,0.3    l0.4,9.5l-0.4,7.7c0,0.1,0,0.2,0,0.3l0.5,9.2c0,0.1,0,0.3,0.1,0.4l1.8,9.2c0.3,1.4,1.5,2.4,2.9,2.4c0.1,0,0.2,0,0.3,0l4.8-0.5    c1.2-0.1,2.3-1,2.6-2.1l2.6-8.8c0.1-0.2,0.1-0.5,0.1-0.7l0.9-26.7c0-0.2,0-0.4,0-0.5l-1.3-8.8l1.4-89.5c0-0.1,0-0.2,0-0.4l-0.9-8    l0.9-8c0-0.1,0-0.2,0-0.4l-0.4-34.9l0.8-2.2l3,1.3l9.7,7.1l21.5,21.2l6.1,7.3c0.1,0.1,0.2,0.2,0.3,0.3l19.5,17l37.2,38.4    c0.1,0.1,0.2,0.2,0.3,0.2l6.3,5.1l6,7.2c0.1,0.1,0.2,0.2,0.3,0.3l25.3,22.7l12.1,13c0.1,0.1,0.2,0.2,0.3,0.3l6.4,5.1l13.5,12.3    c0.6,0.5,1.3,0.8,2,0.8c0.1,0,0.2,0,0.3,0l8.3-0.9c1.3-0.1,2.4-1.2,2.6-2.5l1.4-8.8c0-0.2,0-0.4,0-0.6l-0.4-8.5l0.9-8.1    c0-0.1,0-0.2,0-0.4l-0.5-27.1l0.4-8.7c0-0.1,0-0.1,0-0.2l-0.9-52.1l1.3-7.3c0-0.3,0.1-0.5,0-0.8l-1.3-17l1.3-9.3    c0-0.2,0-0.4,0-0.6l-1.3-17.7l0.9-7.6c0-0.2,0-0.3,0-0.5l-0.9-18.2l0.9-8.5c0-0.3,0-0.7-0.1-1l-2.3-9.2    C2196,105,2194.8,104,2193.4,104L2193.4,104z"></path>		</g>		<g>			<path class="st0" d="M2352.3,353.7c-0.1,0-0.2,0-0.2,0l-5.7-0.9c-0.6-0.1-1.1-0.6-1.2-1.2l-1.8-10.1c0-0.1,0-0.2,0-0.3v-167    l-0.7-8.7c0-0.1,0-0.1,0-0.2l0.3-8.8l-0.3-9.6c0-0.1,0-0.1,0-0.2l0.7-7.7l-0.4-8.4l-4.3-9.4l-8.5-4.3l-8.8-0.9l-17.8,2.5    c-0.1,0-0.1,0-0.2,0c-0.1,0-0.1,0-0.2,0l-9.1-1.3c0,0-18.2,0.5-18.2,0.5c-0.2,0-0.3,0-0.5-0.1l-8.3-3c-0.5-0.2-0.9-0.7-1-1.3    l-0.5-5.3c-0.1-0.8,0.5-1.5,1.3-1.6l8.8-1.2c0.1,0,0.1,0,0.2,0c0,0,68.5,0.3,68.5,0.3l21.4-1.7c0,0,0.2,0,0.2,0l31.5,1.4l8.2-0.4    l9.1-1.3c0.1,0,0.1,0,0.2,0c0.1,0,0.2,0,0.3,0l16.2,3.5c0.6,0.1,1.1,0.7,1.2,1.3l0.5,5.3c0.1,0.7-0.4,1.3-1,1.6l-9.2,3    c-0.2,0-0.3,0.1-0.5,0.1c-0.1,0-0.1,0-0.2,0l-8.1-1.2l-10.4,1.2c-0.1,0-0.1,0-0.2,0c-0.1,0-0.1,0-0.2,0l-8.2-1.2h-12.8l-9,0.7    l-14.3,4.2l-4.2,6.9l1.3,9.1c0,0.1,0,0.2,0,0.3l-0.9,27.5l0.9,7.3c0,0.1,0,0.1,0,0.2l0.5,53.8c0,0.1,0,0.1,0,0.2l-0.9,8.7    L2355,272l1.3,8.5c0,0.1,0,0.3,0,0.4l-0.9,8.4l0.5,52.3c0,0.1,0,0.2,0,0.3l-2.1,10.6C2353.6,353.2,2353,353.7,2352.3,353.7z"></path>			<path class="st0" d="M2414.8,104.9l16.2,3.5l0.5,5.3l-9.2,3l-8.3-1.2l-10.6,1.2l-8.3-1.2h-13l-9.2,0.8l-15,4.4l-4.8,7.9l1.4,9.7    l-0.9,27.6l0.9,7.4l0.5,53.8l-0.9,8.8l-0.5,36.4l1.4,8.6l-0.9,8.5l0.5,52.4l-2.1,10.6l-5.7-0.9l-1.8-10.1V174.1l-0.8-8.8l0.3-8.8    l-0.3-9.7l0.8-7.9l-0.5-8.8l-4.7-10.1l-9.2-4.7l-9.2-0.9l-18,2.6l-9.2-1.4l-18.3,0.5l-8.3-3l-0.5-5.3l8.8-1.2l68.6,0.3l21.4-1.7    l31.6,1.4l8.3-0.5L2414.8,104.9 M2414.8,101.9c-0.1,0-0.3,0-0.4,0l-9.1,1.3l-8,0.4l-31.4-1.4c0,0-0.1,0-0.1,0c-0.1,0-0.2,0-0.2,0    l-21.3,1.7l-68.5-0.3c0,0,0,0,0,0c-0.1,0-0.3,0-0.4,0l-8.8,1.2c-1.6,0.2-2.7,1.6-2.6,3.2l0.5,5.3c0.1,1.2,0.9,2.2,2,2.6l8.3,3    c0.3,0.1,0.7,0.2,1,0.2c0,0,0,0,0.1,0l18-0.4l9,1.3c0.1,0,0.3,0,0.4,0c0.1,0,0.3,0,0.4,0l17.6-2.5l8.3,0.8l7.8,4l4,8.7l0.4,8    l-0.7,7.6c0,0.1,0,0.3,0,0.4l0.3,9.6l-0.3,8.7c0,0.1,0,0.2,0,0.4l0.7,8.6v166.9c0,0.2,0,0.4,0,0.5l1.8,10.1    c0.2,1.3,1.2,2.2,2.5,2.4l5.7,0.9c0.2,0,0.3,0,0.5,0c1.4,0,2.7-1,2.9-2.4l2.1-10.6c0-0.2,0.1-0.4,0.1-0.6l-0.5-52.2l0.9-8.3    c0-0.3,0-0.5,0-0.8l-1.3-8.4l0.4-36l0.9-8.6c0-0.1,0-0.2,0-0.3l-0.5-53.8c0-0.1,0-0.2,0-0.3l-0.9-7.2l0.9-27.4c0-0.2,0-0.3,0-0.5    l-1.2-8.6l3.7-6l13.6-4l8.8-0.7h12.7l8.1,1.2c0.1,0,0.3,0,0.4,0c0.1,0,0.2,0,0.3,0l10.2-1.2l7.9,1.2c0.1,0,0.3,0,0.4,0    c0.3,0,0.6-0.1,0.9-0.1l9.2-3c1.3-0.4,2.2-1.7,2.1-3.1l-0.5-5.3c-0.1-1.3-1.1-2.4-2.4-2.7l-16.2-3.5    C2415.3,101.9,2415,101.9,2414.8,101.9L2414.8,101.9z"></path>		</g>		<g>			<g>				<path class="st1" d="M1052.2,161.1c-23.1,3.3-44.4,22.1-44.4,22.1c10.6-4.1,11.6-1.4,11.6-1.4c-13.6,22.7-16.2,51.1-19.5,74.2     c-0.2,1.5-21.1-2.3-21.1-2.3v-73c2.3-1.7,16,1.7,16,1.7c-12.4-9.2-23.9-41.2-26.1-47.7v-1.1c0,0,0,0.2,0,0.6c0-0.3,0-0.6,0-0.6     v1.1c-2.3,6.3-13.9,38.4-26.3,47.7c0,0,13.6-3.5,15.9-1.7v73c0,0-21,3.8-21.1,2.3c-3.3-23-5.9-51.5-19.5-74.2     c0,0,1.2-2.7,11.6,1.4c0,0-21.3-18.7-44.4-22.1c-2.7-0.5,37.3,47,38.4,115.9l35.5-5v51.4c-0.2,0,10,0.5,10,0.5l10.1-0.5V272     c-0.2,0,35.2,5,35.2,5C1014.9,208.1,1055,160.8,1052.2,161.1"></path>			</g>		</g>	</g></g></svg>