<svg xmlns="http://www.w3.org/2000/svg" xmlns:xlink="http://www.w3.org/1999/xlink" id="Layer_1" data-name="Layer 1" viewBox="0 0 500 500"><defs><style>      .cls-1 {        fill: none;      }      .cls-1, .cls-2, .cls-3 {        stroke-width: 0px;      }      .cls-4 {        clip-path: url(#clippath);      }      .cls-2 {        fill: #ffc726;      }      .cls-3 {        fill: #00267f;      }    </style><clipPath id="clippath"><path class="cls-1" d="M460.6,78.4c-58.3,8.3-111.9,55.5-111.9,55.5,26.5-10.1,29.4-3.4,29.4-3.4-34.3,56.9-40.8,128.8-49,186.7-.5,3.8-53.3-5.8-53.3-5.8V127.6c5.8-4.3,40.3,4.3,40.3,4.3-31.2-23.4-60.2-104-65.7-120.2v-2.8c0,0,0,.5-.3,1.4-.3-.9-.3-1.4-.3-1.4v2.8c-5.8,16.2-34.9,96.8-66.1,120.2,0,0,34.3-8.7,40.1-4.3v183.8s-52.8,9.6-53.3,5.8c-8.2-57.9-14.8-129.8-49.1-186.7,0,0,3-6.8,29.5,3.4,0,0-53.6-47.2-111.9-55.5-6.8-1,94.1,118.2,96.5,291.9l89.3-12.5-.5,129.3,25.6,1,25.6-1-.5-129.3,89.3,12.5c2.4-173.7,103.3-292.9,96.5-291.9"></path></clipPath></defs><g class="cls-4"><rect class="cls-2" x="161.1" y="-29.6" width="173.1" height="548.4"></rect><polygon class="cls-3" points="278 487.4 278 159.6 336.3 150.4 352.3 63.1 451.1 49.3 486.4 58.5 401.4 404 278 487.4"></polygon><polygon class="cls-3" points="222 159.6 222 487.4 98.6 404 -2 61.6 130.8 68.5 188.3 188 222 159.6"></polygon></g></svg>